/* XPM */
static char *expand_xpm[] = {
/* columns rows colors chars-per-pixel */
"24 24 71 1",
"  c #010101",
". c #070708",
"X c #0c0c0c",
"o c #110e13",
"O c #131313",
"+ c #1b171f",
"@ c #1a191b",
"# c #1e1c21",
"$ c Gray14",
"% c #262429",
"& c #2c2c2b",
"* c #2d2a31",
"= c #312d34",
"- c #30302f",
"; c #343434",
": c #38333c",
"> c #3b3c3b",
", c #3e3943",
"< c #403f3f",
"1 c #464544",
"2 c #484746",
"3 c #484847",
"4 c #4d4c4c",
"5 c #4b4451",
"6 c #504f4f",
"7 c #514f50",
"8 c #555454",
"9 c #595759",
"0 c #585857",
"q c #5d5d5d",
"w c #5c5364",
"e c #695f71",
"r c #646463",
"t c #686767",
"y c Gray42",
"u c #6d6476",
"i c #6f6578",
"p c #71677b",
"a c #73697c",
"s c #727272",
"d c #787877",
"f c #7b7b7a",
"g c #776d80",
"h c #786e81",
"j c #7c7285",
"k c #83798c",
"l c #848484",
"z c #898887",
"x c #8c8b8b",
"c c #918f8f",
"v c #9d9c9c",
"b c #a4a3a2",
"n c #adacac",
"m c #b0afaf",
"M c #b5b4b3",
"N c #b8b7b7",
"B c #bcbbba",
"V c #c0bfbe",
"C c #c1c0bf",
"Z c #c4c3c2",
"A c #c7c8c5",
"S c #c9c7c7",
"D c #c8c8c7",
"F c #cccbcb",
"G c #d1d0cf",
"H c #d6d6d5",
"J c #d8d7d7",
"K c #dbdbda",
"L c #f6f6f6",
"P c Gray100",
"I c None",
/* pixels */
"II                     I",
"IIIIIIIIIIIIIIIIIIIIIIII",
" I XOOOOOOooooOOOOOOO. I",
" IXFFFFFFFFFDFFFFFFZKr I",
" IOFBBBBBBBBBBBBBBBNZ1 I",
" IODBBBBBBBBBBBBBBBBC1 I",
" IOHBCCBCCCCCCCCCCCCD3 I",
" I.y84496466666666668$ I",
" I.upau,uaippppppppih: I",
" IXkghuX$ihahhhhggggh# I",
" IXjghww>@uaahahggggg+ I",
" IXjia5zv;%uiippppppp# I",
" I.5**oxJq1X%=*******O I",
" IXZAFczPdr$-BDAZZSZHr I",
" IOFNCzfPn3q@&nBBBBBZ1 I",
" IODBCzdPLt1@$xMNBBBZ1 I",
" IOHBZzxPBMOO6zMBVVBD2 I",
" I.s00>18 zs -188008q& I",
" IXBZBb;$@%n@fNBVVVBGq I",
" IOGBBnzqt&lx>mNVVBBA2 I",
" IODBBMbvvf%q$xMBBBNC1 I",
" IOHZZZBCBn8@4cNZZZZF3 I",
" I.t111111>;$$;111113$ I",
"II                     I"
};
