/* XPM */
static char * menubutton_xpm[] = {
"32 40 4 1",
" 	c None",
".	c #FFFFFF",
"+	c #FDFDFD",
"@	c #FEFEFE",
"                                ",
"                                ",
"                                ",
"                                ",
"                                ",
"                                ",
"                                ",
"                                ",
"                                ",
"                                ",
"                                ",
"                                ",
"                                ",
"                                ",
"         ...         +++        ",
"        .....       +++++       ",
"       +@@@@@+     +++++++      ",
"      +++++++++   +++++++++     ",
"      ++++++++++ ++++++++++     ",
"      +++++++++++++++++++++     ",
"       +++++++++++++++++++      ",
"        +++++++++++++++++       ",
"         +++++++++++++++        ",
"          +++++++++++++         ",
"           +++++++++++          ",
"            +++++++++           ",
"             +++++++            ",
"              +++++             ",
"               +++              ",
"                                ",
"                                ",
"                                ",
"                                ",
"                                ",
"                                ",
"                                ",
"                                ",
"                                ",
"                                ",
"                                "};
