<?xml version="1.0" encoding="utf-8"?>
<!-- Generator: Adobe Illustrator 10.0, SVG Export Plug-In . SVG Version: 3.0.0 Build 77)  -->
<!DOCTYPE svg PUBLIC "-//W3C//DTD SVG 1.0//EN"    "http://www.w3.org/TR/2001/REC-SVG-20010904/DTD/svg10.dtd" [
	<!ENTITY ns_flows "http://ns.adobe.com/Flows/1.0/">
	<!ENTITY ns_extend "http://ns.adobe.com/Extensibility/1.0/">
	<!ENTITY ns_ai "http://ns.adobe.com/AdobeIllustrator/10.0/">
	<!ENTITY ns_graphs "http://ns.adobe.com/Graphs/1.0/">
	<!ENTITY ns_vars "http://ns.adobe.com/Variables/1.0/">
	<!ENTITY ns_imrep "http://ns.adobe.com/ImageReplacement/1.0/">
	<!ENTITY ns_sfw "http://ns.adobe.com/SaveForWeb/1.0/">
	<!ENTITY ns_custom "http://ns.adobe.com/GenericCustomNamespace/1.0/">
	<!ENTITY ns_adobe_xpath "http://ns.adobe.com/XPath/1.0/">
	<!ENTITY ns_svg "http://www.w3.org/2000/svg">
	<!ENTITY ns_xlink "http://www.w3.org/1999/xlink">
]>
<svg 
	 xmlns:x="&ns_extend;" xmlns:i="&ns_ai;" xmlns:graph="&ns_graphs;" i:viewOrigin="0 32" i:rulerOrigin="0 0" i:pageBounds="0 32 32 0"
	 xmlns="&ns_svg;" xmlns:xlink="&ns_xlink;" xmlns:a="http://ns.adobe.com/AdobeSVGViewerExtensions/3.0/" width="32" height="32"
	 viewBox="0 0 32 32" overflow="visible" enable-background="new 0 0 32 32" xml:space="preserve">
	<metadata>
		<variableSets  xmlns="&ns_vars;">
			<variableSet  varSetName="binding1" locked="none">
				<variables></variables>
				<v:sampleDataSets  xmlns="&ns_custom;" xmlns:v="&ns_vars;"></v:sampleDataSets>
			</variableSet>
		</variableSets>
		<sfw  xmlns="&ns_sfw;">
			<slices></slices>
			<sliceSourceBounds  y="0" x="0" width="32" height="32" bottomLeftOrigin="true"></sliceSourceBounds>
		</sfw>
	</metadata>
	<g id="圖層_1" i:layer="yes" i:dimmedPercent="50" i:rgbTrio="#4F008000FFFF">
		<g>
			<path i:knockout="Off" fill-rule="evenodd" clip-rule="evenodd" fill="#FFFFFF" d="M25.468,26.219H6.533V5.781h18.935V26.219z"/>
			<path i:knockout="Off" fill="none" d="M32,32H0V0h32V32z"/>
			<g>
				<g i:knockout="Off">
					<g>
						
							<linearGradient id="XMLID_1_" gradientUnits="userSpaceOnUse" x1="15.9517" y1="2.5342" x2="15.9517" y2="31.2027" gradientTransform="matrix(1 0 0 1 0.0479 -0.8682)">
							<stop  offset="0.0056" style="stop-color:#FF7800"/>
							<stop  offset="1" style="stop-color:#9A2400"/>
							<a:midPointStop  offset="0.0056" style="stop-color:#FF7800"/>
							<a:midPointStop  offset="0.5" style="stop-color:#FF7800"/>
							<a:midPointStop  offset="1" style="stop-color:#9A2400"/>
						</linearGradient>
						<path i:knockout="Off" fill-rule="evenodd" clip-rule="evenodd" fill="url(#XMLID_1_)" d="M25.686,1.666H6.314
							c-1.77,0-3.203,1.433-3.203,3.202v22.263c0,1.768,1.434,3.203,3.203,3.203h19.371c1.77,0,3.203-1.436,3.203-3.203V4.868
							C28.889,3.099,27.455,1.666,25.686,1.666z"/>
					</g>
				</g>
				<g>
					<path i:knockout="Off" fill="#FFFFFF" d="M13.944,18.412c0,0,1.932,1.662,2.088,1.796c0.149-0.14,1.878-1.753,1.878-1.753
						l1.875,1.746V6.836c0-0.485-0.393-0.878-0.877-0.878h-5.816c-0.485,0-0.878,0.393-0.878,0.878v13.356l1.648-1.695
						L13.944,18.412z"/>
					<path i:knockout="Off" fill="#FFFFFF" d="M17.91,19.88c-0.155,0.145-1.871,1.747-1.871,1.747s-1.916-1.647-2.079-1.788
						c-0.149,0.152-1.656,1.703-1.656,1.703l-0.09-0.087l3.857,4.587l3.714-4.587L19.7,21.547
						C19.7,21.547,18.065,20.024,17.91,19.88z"/>
				</g>
			</g>
		</g>
	</g>
</svg>
