<?xml version="1.0" encoding="utf-8"?>
<!-- Generator: Adobe Illustrator 10.0, SVG Export Plug-In . SVG Version: 3.0.0 Build 77)  -->
<!DOCTYPE svg PUBLIC "-//W3C//DTD SVG 1.0//EN"    "http://www.w3.org/TR/2001/REC-SVG-20010904/DTD/svg10.dtd" [
	<!ENTITY ns_flows "http://ns.adobe.com/Flows/1.0/">
	<!ENTITY ns_extend "http://ns.adobe.com/Extensibility/1.0/">
	<!ENTITY ns_ai "http://ns.adobe.com/AdobeIllustrator/10.0/">
	<!ENTITY ns_graphs "http://ns.adobe.com/Graphs/1.0/">
	<!ENTITY ns_vars "http://ns.adobe.com/Variables/1.0/">
	<!ENTITY ns_imrep "http://ns.adobe.com/ImageReplacement/1.0/">
	<!ENTITY ns_sfw "http://ns.adobe.com/SaveForWeb/1.0/">
	<!ENTITY ns_custom "http://ns.adobe.com/GenericCustomNamespace/1.0/">
	<!ENTITY ns_adobe_xpath "http://ns.adobe.com/XPath/1.0/">
	<!ENTITY ns_svg "http://www.w3.org/2000/svg">
	<!ENTITY ns_xlink "http://www.w3.org/1999/xlink">
]>
<svg 
	 xmlns:x="&ns_extend;" xmlns:i="&ns_ai;" xmlns:graph="&ns_graphs;" i:viewOrigin="0 32" i:rulerOrigin="0 0" i:pageBounds="0 32 32 0"
	 xmlns="&ns_svg;" xmlns:xlink="&ns_xlink;" xmlns:a="http://ns.adobe.com/AdobeSVGViewerExtensions/3.0/" width="32" height="32"
	 viewBox="0 0 32 32" overflow="visible" enable-background="new 0 0 32 32" xml:space="preserve">
	<metadata>
		<variableSets  xmlns="&ns_vars;">
			<variableSet  varSetName="binding1" locked="none">
				<variables></variables>
				<v:sampleDataSets  xmlns="&ns_custom;" xmlns:v="&ns_vars;"></v:sampleDataSets>
			</variableSet>
		</variableSets>
		<sfw  xmlns="&ns_sfw;">
			<slices></slices>
			<sliceSourceBounds  y="0" x="0" width="32" height="32" bottomLeftOrigin="true"></sliceSourceBounds>
		</sfw>
	</metadata>
	<g id="圖層_1" i:layer="yes" i:dimmedPercent="50" i:rgbTrio="#4F008000FFFF">
		<g>
			<g>
				<g i:knockout="Off">
					<g>
						
							<linearGradient id="XMLID_1_" gradientUnits="userSpaceOnUse" x1="15.8472" y1="2.0029" x2="15.8472" y2="30.7036" gradientTransform="matrix(1 0 0 1 0.1528 -0.3691)">
							<stop  offset="0.0056" style="stop-color:#FF7800"/>
							<stop  offset="1" style="stop-color:#9A2400"/>
							<a:midPointStop  offset="0.0056" style="stop-color:#FF7800"/>
							<a:midPointStop  offset="0.5" style="stop-color:#FF7800"/>
							<a:midPointStop  offset="1" style="stop-color:#9A2400"/>
						</linearGradient>
						<path i:knockout="Off" fill-rule="evenodd" clip-rule="evenodd" fill="url(#XMLID_1_)" d="M18.916,1.634
							C11.773,1.646,5.058,1.666,6.314,1.666c-1.77,0-3.203,1.433-3.203,3.202v22.263c0,1.768,1.434,3.203,3.203,3.203h19.371
							c1.77,0,3.203-1.436,3.203-3.203V9.943L18.916,1.634z"/>
					</g>
				</g>
				<path i:knockout="Off" fill="none" d="M32,32H0V0h32V32z"/>
				<linearGradient id="XMLID_2_" gradientUnits="userSpaceOnUse" x1="22.835" y1="-13.2939" x2="24.3925" y2="20.5931">
					<stop  offset="0.0056" style="stop-color:#FF7800"/>
					<stop  offset="1" style="stop-color:#9A2400"/>
					<a:midPointStop  offset="0.0056" style="stop-color:#FF7800"/>
					<a:midPointStop  offset="0.5" style="stop-color:#FF7800"/>
					<a:midPointStop  offset="1" style="stop-color:#9A2400"/>
				</linearGradient>
				<path i:knockout="Off" fill-rule="evenodd" clip-rule="evenodd" fill="url(#XMLID_2_)" d="M28.889,9.943l-9.973-8.31
					c0,1.401,0,8.293,0,8.293L28.889,9.943z"/>
			</g>
			<path i:knockout="Off" fill="#FFFFFF" d="M24.682,21.761l-4.506-4.514c-0.012-0.012-0.025-0.02-0.037-0.031
				c0.488-0.938,0.77-2.002,0.77-3.13c0-3.748-3.049-6.796-6.796-6.796s-6.795,3.048-6.795,6.796c0,3.747,3.048,6.795,6.795,6.795
				c1.105,0,2.146-0.271,3.069-0.741c0.016,0.018,0.027,0.037,0.043,0.054l4.506,4.514c0.814,0.814,2.135,0.816,2.949,0.002
				C25.494,23.896,25.496,22.575,24.682,21.761z M14.111,18.981c-2.7,0-4.896-2.196-4.896-4.896c0-2.7,2.196-4.896,4.896-4.896
				c2.699,0,4.896,2.196,4.896,4.896C19.008,16.785,16.811,18.981,14.111,18.981z"/>
		</g>
	</g>
</svg>
