<?xml version="1.0" encoding="utf-8"?>
<!-- Generator: Adobe Illustrator 10.0, SVG Export Plug-In . SVG Version: 3.0.0 Build 77)  -->
<!DOCTYPE svg PUBLIC "-//W3C//DTD SVG 1.0//EN"    "http://www.w3.org/TR/2001/REC-SVG-20010904/DTD/svg10.dtd" [
	<!ENTITY ns_flows "http://ns.adobe.com/Flows/1.0/">
	<!ENTITY ns_extend "http://ns.adobe.com/Extensibility/1.0/">
	<!ENTITY ns_ai "http://ns.adobe.com/AdobeIllustrator/10.0/">
	<!ENTITY ns_graphs "http://ns.adobe.com/Graphs/1.0/">
	<!ENTITY ns_vars "http://ns.adobe.com/Variables/1.0/">
	<!ENTITY ns_imrep "http://ns.adobe.com/ImageReplacement/1.0/">
	<!ENTITY ns_sfw "http://ns.adobe.com/SaveForWeb/1.0/">
	<!ENTITY ns_custom "http://ns.adobe.com/GenericCustomNamespace/1.0/">
	<!ENTITY ns_adobe_xpath "http://ns.adobe.com/XPath/1.0/">
	<!ENTITY ns_svg "http://www.w3.org/2000/svg">
	<!ENTITY ns_xlink "http://www.w3.org/1999/xlink">
]>
<svg 
	 xmlns:x="&ns_extend;" xmlns:i="&ns_ai;" xmlns:graph="&ns_graphs;" i:viewOrigin="0 32" i:rulerOrigin="0 0" i:pageBounds="0 32 32 0"
	 xmlns="&ns_svg;" xmlns:xlink="&ns_xlink;" xmlns:a="http://ns.adobe.com/AdobeSVGViewerExtensions/3.0/"
	 width="32" height="31.999" viewBox="0 0 32 31.999" overflow="visible" enable-background="new 0 0 32 31.999"
	 xml:space="preserve">
	<metadata>
		<variableSets  xmlns="&ns_vars;">
			<variableSet  varSetName="binding1" locked="none">
				<variables></variables>
				<v:sampleDataSets  xmlns="&ns_custom;" xmlns:v="&ns_vars;"></v:sampleDataSets>
			</variableSet>
		</variableSets>
		<sfw  xmlns="&ns_sfw;">
			<slices></slices>
			<sliceSourceBounds  y="0.001" x="0" width="32" height="31.999" bottomLeftOrigin="true"></sliceSourceBounds>
		</sfw>
	</metadata>
	<g id="_x00B9_柉x00BC_h_x005F_1" i:layer="yes" i:dimmedPercent="50" i:rgbTrio="#4F008000FFFF">
		<g>
			<path i:knockout="Off" fill="none" d="M32,31.999H0V0h32V31.999z"/>
			<g>
				<g>
					<g>
						<path i:knockout="Off" fill-rule="evenodd" clip-rule="evenodd" fill="#FFC8BB" d="M9.638,31.788H0.265v-9.375h9.373V31.788z"
							/>
						<path i:knockout="Off" fill-rule="evenodd" clip-rule="evenodd" fill="#E5FFBB" d="M20.687,31.788h-9.374v-9.375h9.374V31.788
							z"/>
						<path i:knockout="Off" fill-rule="evenodd" clip-rule="evenodd" fill="#FFD2BB" d="M31.734,31.788h-9.373v-9.375h9.373V31.788
							z"/>
					</g>
					<g>
						<path i:knockout="Off" fill-rule="evenodd" clip-rule="evenodd" fill="#FFDAB8" d="M9.638,20.688H0.265v-9.376h9.373V20.688z"
							/>
						<path i:knockout="Off" fill-rule="evenodd" clip-rule="evenodd" fill="#BBEAFF" d="M20.687,20.688h-9.374v-9.376h9.374V20.688
							z"/>
						<path i:knockout="Off" fill-rule="evenodd" clip-rule="evenodd" fill="#F3BBFF" d="M31.735,20.688h-9.374v-9.376h9.374V20.688
							z"/>
					</g>
					<g>
						<path i:knockout="Off" fill-rule="evenodd" clip-rule="evenodd" fill="#FFB6CB" d="M9.638,9.585H0.265V0.211h9.373V9.585z"/>
						<path i:knockout="Off" fill-rule="evenodd" clip-rule="evenodd" fill="#BBB8FF" d="M20.687,9.585h-9.374V0.211h9.374V9.585z"
							/>
						<path i:knockout="Off" fill-rule="evenodd" clip-rule="evenodd" fill="#FFFFBB" d="M31.735,9.585h-9.374V0.211h9.374V9.585z"
							/>
					</g>
				</g>
				<linearGradient id="XMLID_1_" gradientUnits="userSpaceOnUse" x1="15.9995" y1="4.6201" x2="15.9995" y2="27.3794">
					<stop  offset="0.0056" style="stop-color:#FF7800"/>
					<stop  offset="1" style="stop-color:#9A2400"/>
					<a:midPointStop  offset="0.0056" style="stop-color:#FF7800"/>
					<a:midPointStop  offset="0.5" style="stop-color:#FF7800"/>
					<a:midPointStop  offset="1" style="stop-color:#9A2400"/>
				</linearGradient>
				<path i:knockout="Off" fill="url(#XMLID_1_)" stroke="#FFFFFF" d="M23.889,19.967v-6.548c0-0.873-0.748-1.579-1.669-1.579
					c-0.917,0-1.666,0.706-1.666,1.579v3.411h-0.819v-3.411c0-0.873-0.745-1.579-1.662-1.579c-0.921,0-1.668,0.706-1.668,1.579
					v3.411h-0.817v-3.411c0-0.873-0.746-1.579-1.664-1.579c-0.924,0-1.667,0.706-1.667,1.579v3.411h-0.821V6.201
					c0-0.872-0.749-1.581-1.66-1.581c-0.92,0-1.673,0.709-1.673,1.581v13.986c0,0.061,0.015,0.117,0.021,0.176v3.646
					c0,1.859,1.168,3.369,2.611,3.369h10.555c1.44,0,2.61-1.51,2.61-3.369v-3.813C23.898,20.121,23.889,20.041,23.889,19.967z"/>
			</g>
		</g>
	</g>
</svg>
