<?xml version="1.0" encoding="utf-8"?>
<!-- Generator: Adobe Illustrator 10.0, SVG Export Plug-In . SVG Version: 3.0.0 Build 77)  -->
<!DOCTYPE svg PUBLIC "-//W3C//DTD SVG 1.0//EN"    "http://www.w3.org/TR/2001/REC-SVG-20010904/DTD/svg10.dtd" [
	<!ENTITY ns_flows "http://ns.adobe.com/Flows/1.0/">
	<!ENTITY ns_extend "http://ns.adobe.com/Extensibility/1.0/">
	<!ENTITY ns_ai "http://ns.adobe.com/AdobeIllustrator/10.0/">
	<!ENTITY ns_graphs "http://ns.adobe.com/Graphs/1.0/">
	<!ENTITY ns_vars "http://ns.adobe.com/Variables/1.0/">
	<!ENTITY ns_imrep "http://ns.adobe.com/ImageReplacement/1.0/">
	<!ENTITY ns_sfw "http://ns.adobe.com/SaveForWeb/1.0/">
	<!ENTITY ns_custom "http://ns.adobe.com/GenericCustomNamespace/1.0/">
	<!ENTITY ns_adobe_xpath "http://ns.adobe.com/XPath/1.0/">
	<!ENTITY ns_svg "http://www.w3.org/2000/svg">
	<!ENTITY ns_xlink "http://www.w3.org/1999/xlink">
]>
<svg 
	 xmlns:x="&ns_extend;" xmlns:i="&ns_ai;" xmlns:graph="&ns_graphs;" i:viewOrigin="0 32" i:rulerOrigin="0 0" i:pageBounds="0 32 32 0"
	 xmlns="&ns_svg;" xmlns:xlink="&ns_xlink;" xmlns:a="http://ns.adobe.com/AdobeSVGViewerExtensions/3.0/" width="32" height="32"
	 viewBox="0 0 32 32" overflow="visible" enable-background="new 0 0 32 32" xml:space="preserve">
	<metadata>
		<variableSets  xmlns="&ns_vars;">
			<variableSet  varSetName="binding1" locked="none">
				<variables></variables>
				<v:sampleDataSets  xmlns="&ns_custom;" xmlns:v="&ns_vars;"></v:sampleDataSets>
			</variableSet>
		</variableSets>
		<sfw  xmlns="&ns_sfw;">
			<slices></slices>
			<sliceSourceBounds  y="0" x="0" width="32" height="32" bottomLeftOrigin="true"></sliceSourceBounds>
		</sfw>
	</metadata>
	<g id="圖層_1" i:layer="yes" i:dimmedPercent="50" i:rgbTrio="#4F008000FFFF">
		<path i:knockout="Off" fill="none" d="M32,32H0V0h32V32z"/>
		<linearGradient id="XMLID_1_" gradientUnits="userSpaceOnUse" x1="11.2007" y1="3.3062" x2="11.2007" y2="24.2056">
			<stop  offset="0.0056" style="stop-color:#FF7800"/>
			<stop  offset="1" style="stop-color:#9A2400"/>
			<a:midPointStop  offset="0.0056" style="stop-color:#FF7800"/>
			<a:midPointStop  offset="0.5" style="stop-color:#FF7800"/>
			<a:midPointStop  offset="1" style="stop-color:#9A2400"/>
		</linearGradient>
		<path i:knockout="Off" fill-rule="evenodd" clip-rule="evenodd" fill="url(#XMLID_1_)" d="M20.682,9.512v13.846
			c0,0.469-0.412,0.848-0.924,0.848H2.645c-0.512,0-0.925-0.379-0.925-0.848V4.154c0-0.469,0.414-0.848,0.925-0.848h10.598
			L20.682,9.512z"/>
		<linearGradient id="XMLID_2_" gradientUnits="userSpaceOnUse" x1="10.0938" y1="6.312" x2="15.6626" y2="6.312">
			<stop  offset="0.0056" style="stop-color:#FF7800"/>
			<stop  offset="1" style="stop-color:#9A2400"/>
			<a:midPointStop  offset="0.0056" style="stop-color:#FF7800"/>
			<a:midPointStop  offset="0.5" style="stop-color:#FF7800"/>
			<a:midPointStop  offset="1" style="stop-color:#9A2400"/>
		</linearGradient>
		<path i:knockout="Off" fill-rule="evenodd" clip-rule="evenodd" fill="url(#XMLID_2_)" d="M20.512,9.341l-7.269-6.058
			c0,1.021,0,6.045,0,6.045L20.512,9.341z"/>
		<path i:knockout="Off" fill-rule="evenodd" clip-rule="evenodd" fill="none" stroke="#9A2400" stroke-width="0.405" d="
			M20.682,9.512v13.846c0,0.469-0.412,0.848-0.924,0.848H2.645c-0.512,0-0.925-0.379-0.925-0.848V4.154
			c0-0.469,0.414-0.848,0.925-0.848h10.598L20.682,9.512z"/>
		<linearGradient id="XMLID_3_" gradientUnits="userSpaceOnUse" x1="13.5757" y1="4.9312" x2="13.5757" y2="25.8306">
			<stop  offset="0.0056" style="stop-color:#FF7800"/>
			<stop  offset="1" style="stop-color:#9A2400"/>
			<a:midPointStop  offset="0.0056" style="stop-color:#FF7800"/>
			<a:midPointStop  offset="0.5" style="stop-color:#FF7800"/>
			<a:midPointStop  offset="1" style="stop-color:#9A2400"/>
		</linearGradient>
		<path i:knockout="Off" fill-rule="evenodd" clip-rule="evenodd" fill="url(#XMLID_3_)" d="M23.057,11.137v13.846
			c0,0.469-0.412,0.848-0.924,0.848H5.02c-0.512,0-0.925-0.379-0.925-0.848V5.779c0-0.469,0.414-0.848,0.925-0.848h10.598
			L23.057,11.137z"/>
		<linearGradient id="XMLID_4_" gradientUnits="userSpaceOnUse" x1="12.4688" y1="7.937" x2="18.0376" y2="7.937">
			<stop  offset="0.0056" style="stop-color:#FF7800"/>
			<stop  offset="1" style="stop-color:#9A2400"/>
			<a:midPointStop  offset="0.0056" style="stop-color:#FF7800"/>
			<a:midPointStop  offset="0.5" style="stop-color:#FF7800"/>
			<a:midPointStop  offset="1" style="stop-color:#9A2400"/>
		</linearGradient>
		<path i:knockout="Off" fill-rule="evenodd" clip-rule="evenodd" fill="url(#XMLID_4_)" d="M22.887,10.966l-7.269-6.058
			c0,1.021,0,6.045,0,6.045L22.887,10.966z"/>
		<path i:knockout="Off" fill-rule="evenodd" clip-rule="evenodd" fill="none" stroke="#9A2400" stroke-width="0.405" d="
			M23.057,11.137v13.846c0,0.469-0.412,0.848-0.924,0.848H5.02c-0.512,0-0.925-0.379-0.925-0.848V5.779
			c0-0.469,0.414-0.848,0.925-0.848h10.598L23.057,11.137z"/>
		<linearGradient id="XMLID_5_" gradientUnits="userSpaceOnUse" x1="20.8008" y1="7.8169" x2="20.8008" y2="28.7173">
			<stop  offset="0.0056" style="stop-color:#FF7800"/>
			<stop  offset="1" style="stop-color:#9A2400"/>
			<a:midPointStop  offset="0.0056" style="stop-color:#FF7800"/>
			<a:midPointStop  offset="0.5" style="stop-color:#FF7800"/>
			<a:midPointStop  offset="1" style="stop-color:#9A2400"/>
		</linearGradient>
		<path i:knockout="Off" fill-rule="evenodd" clip-rule="evenodd" fill="url(#XMLID_5_)" d="M30.281,14.022v13.847
			c0,0.467-0.412,0.848-0.924,0.848H12.244c-0.511,0-0.925-0.381-0.925-0.848V8.664c0-0.468,0.414-0.847,0.925-0.847h10.598
			L30.281,14.022z"/>
		<linearGradient id="XMLID_6_" gradientUnits="userSpaceOnUse" x1="19.6924" y1="10.8223" x2="25.2616" y2="10.8223">
			<stop  offset="0.0056" style="stop-color:#FF7800"/>
			<stop  offset="1" style="stop-color:#9A2400"/>
			<a:midPointStop  offset="0.0056" style="stop-color:#FF7800"/>
			<a:midPointStop  offset="0.5" style="stop-color:#FF7800"/>
			<a:midPointStop  offset="1" style="stop-color:#9A2400"/>
		</linearGradient>
		<path i:knockout="Off" fill-rule="evenodd" clip-rule="evenodd" fill="url(#XMLID_6_)" d="M30.111,13.852l-7.27-6.058
			c0,1.021,0,6.046,0,6.046L30.111,13.852z"/>
		<linearGradient id="XMLID_7_" gradientUnits="userSpaceOnUse" x1="25.9697" y1="16.3105" x2="25.9697" y2="21.137">
			<stop  offset="0" style="stop-color:#FFFFFF"/>
			<stop  offset="1" style="stop-color:#B0B0B0"/>
			<a:midPointStop  offset="0" style="stop-color:#FFFFFF"/>
			<a:midPointStop  offset="0.5" style="stop-color:#FFFFFF"/>
			<a:midPointStop  offset="1" style="stop-color:#B0B0B0"/>
		</linearGradient>
		<path i:knockout="Off" fill-rule="evenodd" clip-rule="evenodd" fill="url(#XMLID_7_)" stroke="#9A2400" stroke-width="0.405" d="
			M29.143,21.271h-6.346v-5.603h6.346V21.271z"/>
		<linearGradient id="XMLID_8_" gradientUnits="userSpaceOnUse" x1="17.3125" y1="14.0483" x2="17.3125" y2="15.4439">
			<stop  offset="0" style="stop-color:#FFFFFF"/>
			<stop  offset="1" style="stop-color:#FFFFFF"/>
			<a:midPointStop  offset="0" style="stop-color:#FFFFFF"/>
			<a:midPointStop  offset="0.5" style="stop-color:#FFFFFF"/>
			<a:midPointStop  offset="1" style="stop-color:#FFFFFF"/>
		</linearGradient>
		<path i:knockout="Off" fill-rule="evenodd" clip-rule="evenodd" fill="url(#XMLID_8_)" d="M21.666,15.483h-8.707v-1.62h8.707
			V15.483z"/>
		<g>
			<linearGradient id="XMLID_9_" gradientUnits="userSpaceOnUse" x1="14.8579" y1="17.2881" x2="14.8579" y2="18.6837">
				<stop  offset="0" style="stop-color:#FFFFFF"/>
				<stop  offset="1" style="stop-color:#FFFFFF"/>
				<a:midPointStop  offset="0" style="stop-color:#FFFFFF"/>
				<a:midPointStop  offset="0.5" style="stop-color:#FFFFFF"/>
				<a:midPointStop  offset="1" style="stop-color:#FFFFFF"/>
			</linearGradient>
			<path i:knockout="Off" fill-rule="evenodd" clip-rule="evenodd" fill="url(#XMLID_9_)" d="M16.756,18.723h-3.797v-1.62h3.797
				V18.723z"/>
			<linearGradient id="XMLID_10_" gradientUnits="userSpaceOnUse" x1="19.7686" y1="17.2881" x2="19.7686" y2="18.6837">
				<stop  offset="0" style="stop-color:#FFFFFF"/>
				<stop  offset="1" style="stop-color:#FFFFFF"/>
				<a:midPointStop  offset="0" style="stop-color:#FFFFFF"/>
				<a:midPointStop  offset="0.5" style="stop-color:#FFFFFF"/>
				<a:midPointStop  offset="1" style="stop-color:#FFFFFF"/>
			</linearGradient>
			<path i:knockout="Off" fill-rule="evenodd" clip-rule="evenodd" fill="url(#XMLID_10_)" d="M21.666,18.723h-3.795v-1.62h3.795
				V18.723z"/>
		</g>
		<g>
			<linearGradient id="XMLID_11_" gradientUnits="userSpaceOnUse" x1="14.8579" y1="10.8086" x2="14.8579" y2="12.2042">
				<stop  offset="0" style="stop-color:#FFFFFF"/>
				<stop  offset="1" style="stop-color:#FFFFFF"/>
				<a:midPointStop  offset="0" style="stop-color:#FFFFFF"/>
				<a:midPointStop  offset="0.5" style="stop-color:#FFFFFF"/>
				<a:midPointStop  offset="1" style="stop-color:#FFFFFF"/>
			</linearGradient>
			<path i:knockout="Off" fill-rule="evenodd" clip-rule="evenodd" fill="url(#XMLID_11_)" d="M16.756,12.243h-3.797v-1.62h3.797
				V12.243z"/>
			<linearGradient id="XMLID_12_" gradientUnits="userSpaceOnUse" x1="19.7686" y1="10.8086" x2="19.7686" y2="12.2042">
				<stop  offset="0" style="stop-color:#FFFFFF"/>
				<stop  offset="1" style="stop-color:#FFFFFF"/>
				<a:midPointStop  offset="0" style="stop-color:#FFFFFF"/>
				<a:midPointStop  offset="0.5" style="stop-color:#FFFFFF"/>
				<a:midPointStop  offset="1" style="stop-color:#FFFFFF"/>
			</linearGradient>
			<path i:knockout="Off" fill-rule="evenodd" clip-rule="evenodd" fill="url(#XMLID_12_)" d="M21.666,12.243h-3.795v-1.62h3.795
				V12.243z"/>
		</g>
		<g>
			<linearGradient id="XMLID_13_" gradientUnits="userSpaceOnUse" x1="14.8579" y1="23.7676" x2="14.8579" y2="25.164">
				<stop  offset="0" style="stop-color:#FFFFFF"/>
				<stop  offset="1" style="stop-color:#FFFFFF"/>
				<a:midPointStop  offset="0" style="stop-color:#FFFFFF"/>
				<a:midPointStop  offset="0.5" style="stop-color:#FFFFFF"/>
				<a:midPointStop  offset="1" style="stop-color:#FFFFFF"/>
			</linearGradient>
			<path i:knockout="Off" fill-rule="evenodd" clip-rule="evenodd" fill="url(#XMLID_13_)" d="M16.756,25.203h-3.797v-1.621h3.797
				V25.203z"/>
			<linearGradient id="XMLID_14_" gradientUnits="userSpaceOnUse" x1="19.7686" y1="23.7676" x2="19.7686" y2="25.164">
				<stop  offset="0" style="stop-color:#FFFFFF"/>
				<stop  offset="1" style="stop-color:#FFFFFF"/>
				<a:midPointStop  offset="0" style="stop-color:#FFFFFF"/>
				<a:midPointStop  offset="0.5" style="stop-color:#FFFFFF"/>
				<a:midPointStop  offset="1" style="stop-color:#FFFFFF"/>
			</linearGradient>
			<path i:knockout="Off" fill-rule="evenodd" clip-rule="evenodd" fill="url(#XMLID_14_)" d="M21.666,25.203h-3.795v-1.621h3.795
				V25.203z"/>
		</g>
		<linearGradient id="XMLID_15_" gradientUnits="userSpaceOnUse" x1="17.3125" y1="20.5273" x2="17.3125" y2="21.9238">
			<stop  offset="0" style="stop-color:#FFFFFF"/>
			<stop  offset="1" style="stop-color:#FFFFFF"/>
			<a:midPointStop  offset="0" style="stop-color:#FFFFFF"/>
			<a:midPointStop  offset="0.5" style="stop-color:#FFFFFF"/>
			<a:midPointStop  offset="1" style="stop-color:#FFFFFF"/>
		</linearGradient>
		<path i:knockout="Off" fill-rule="evenodd" clip-rule="evenodd" fill="url(#XMLID_15_)" d="M21.666,21.963h-8.707v-1.621h8.707
			V21.963z"/>
		<linearGradient id="XMLID_16_" gradientUnits="userSpaceOnUse" x1="25.8262" y1="23.7676" x2="25.8262" y2="25.164">
			<stop  offset="0" style="stop-color:#FFFFFF"/>
			<stop  offset="1" style="stop-color:#FFFFFF"/>
			<a:midPointStop  offset="0" style="stop-color:#FFFFFF"/>
			<a:midPointStop  offset="0.5" style="stop-color:#FFFFFF"/>
			<a:midPointStop  offset="1" style="stop-color:#FFFFFF"/>
		</linearGradient>
		<path i:knockout="Off" fill-rule="evenodd" clip-rule="evenodd" fill="url(#XMLID_16_)" d="M28.855,25.203h-6.059v-1.621h6.059
			V25.203z"/>
		<path i:knockout="Off" fill-rule="evenodd" clip-rule="evenodd" fill="none" stroke="#9A2400" stroke-width="0.405" d="
			M30.281,14.022v13.847c0,0.467-0.412,0.848-0.924,0.848H12.244c-0.511,0-0.925-0.381-0.925-0.848V8.664
			c0-0.468,0.414-0.847,0.925-0.847h10.598L30.281,14.022z"/>
	</g>
</svg>
