<?xml version="1.0" encoding="utf-8"?>
<!-- Generator: Adobe Illustrator 10.0, SVG Export Plug-In . SVG Version: 3.0.0 Build 77)  -->
<!DOCTYPE svg PUBLIC "-//W3C//DTD SVG 1.0//EN"    "http://www.w3.org/TR/2001/REC-SVG-20010904/DTD/svg10.dtd" [
	<!ENTITY ns_flows "http://ns.adobe.com/Flows/1.0/">
	<!ENTITY ns_extend "http://ns.adobe.com/Extensibility/1.0/">
	<!ENTITY ns_ai "http://ns.adobe.com/AdobeIllustrator/10.0/">
	<!ENTITY ns_graphs "http://ns.adobe.com/Graphs/1.0/">
	<!ENTITY ns_vars "http://ns.adobe.com/Variables/1.0/">
	<!ENTITY ns_imrep "http://ns.adobe.com/ImageReplacement/1.0/">
	<!ENTITY ns_sfw "http://ns.adobe.com/SaveForWeb/1.0/">
	<!ENTITY ns_custom "http://ns.adobe.com/GenericCustomNamespace/1.0/">
	<!ENTITY ns_adobe_xpath "http://ns.adobe.com/XPath/1.0/">
	<!ENTITY ns_svg "http://www.w3.org/2000/svg">
	<!ENTITY ns_xlink "http://www.w3.org/1999/xlink">
]>
<svg 
	 xmlns:x="&ns_extend;" xmlns:i="&ns_ai;" xmlns:graph="&ns_graphs;" i:viewOrigin="0 32" i:rulerOrigin="0 0" i:pageBounds="0 32 32 0"
	 xmlns="&ns_svg;" xmlns:xlink="&ns_xlink;" xmlns:a="http://ns.adobe.com/AdobeSVGViewerExtensions/3.0/" width="32" height="32"
	 viewBox="0 0 32 32" overflow="visible" enable-background="new 0 0 32 32" xml:space="preserve">
	<metadata>
		<variableSets  xmlns="&ns_vars;">
			<variableSet  varSetName="binding1" locked="none">
				<variables></variables>
				<v:sampleDataSets  xmlns="&ns_custom;" xmlns:v="&ns_vars;"></v:sampleDataSets>
			</variableSet>
		</variableSets>
		<sfw  xmlns="&ns_sfw;">
			<slices></slices>
			<sliceSourceBounds  y="0" x="0" width="32" height="32" bottomLeftOrigin="true"></sliceSourceBounds>
		</sfw>
	</metadata>
	<g id="圖層_1" i:layer="yes" i:dimmedPercent="50" i:rgbTrio="#4F008000FFFF">
		<g>
			<g>
				<path i:knockout="Off" fill-rule="evenodd" clip-rule="evenodd" fill="#FFFFFF" d="M18.773,21.309H4.242V5.625h14.531V21.309z"
					/>
				<g i:knockout="Off">
					<g>
						
							<linearGradient id="XMLID_1_" gradientUnits="userSpaceOnUse" x1="11.272" y1="1.687" x2="11.272" y2="23.688" gradientTransform="matrix(1 0 0 1 0.2285 0.1875)">
							<stop  offset="0.0056" style="stop-color:#FF7800"/>
							<stop  offset="1" style="stop-color:#9A2400"/>
							<a:midPointStop  offset="0.0056" style="stop-color:#FF7800"/>
							<a:midPointStop  offset="0.5" style="stop-color:#FF7800"/>
							<a:midPointStop  offset="1" style="stop-color:#9A2400"/>
						</linearGradient>
						<path i:knockout="Off" fill-rule="evenodd" clip-rule="evenodd" fill="url(#XMLID_1_)" d="M18.934,1.875H4.067
							c-1.357,0-2.458,1.1-2.458,2.457v17.085c0,1.357,1.101,2.458,2.458,2.458h14.866c1.357,0,2.458-1.101,2.458-2.458V4.332
							C21.392,2.975,20.291,1.875,18.934,1.875z M18.903,18.926H4.242V16.61h14.661V18.926z M18.903,14.01H4.242v-2.315h14.661
							V14.01z M18.903,9.094H4.242V6.779h14.661V9.094z"/>
					</g>
				</g>
			</g>
			<g>
				<path i:knockout="Off" fill-rule="evenodd" clip-rule="evenodd" fill="#FFFFFF" d="M27.773,27.559H13.242V11.875h14.531V27.559z
					"/>
				<g i:knockout="Off">
					<g>
						
							<linearGradient id="XMLID_2_" gradientUnits="userSpaceOnUse" x1="20.2725" y1="7.937" x2="20.2725" y2="29.938" gradientTransform="matrix(1 0 0 1 0.2285 0.1875)">
							<stop  offset="0.0056" style="stop-color:#FF7800"/>
							<stop  offset="1" style="stop-color:#9A2400"/>
							<a:midPointStop  offset="0.0056" style="stop-color:#FF7800"/>
							<a:midPointStop  offset="0.5" style="stop-color:#FF7800"/>
							<a:midPointStop  offset="1" style="stop-color:#9A2400"/>
						</linearGradient>
						<path i:knockout="Off" fill-rule="evenodd" clip-rule="evenodd" fill="url(#XMLID_2_)" d="M27.934,8.125H13.067
							c-1.357,0-2.458,1.1-2.458,2.457v17.085c0,1.357,1.101,2.458,2.458,2.458h14.866c1.357,0,2.458-1.101,2.458-2.458V10.582
							C30.392,9.225,29.291,8.125,27.934,8.125z M27.903,25.176H13.242V22.86h14.661V25.176z M27.903,20.26H13.242v-2.315h14.661
							V20.26z M27.903,15.344H13.242v-2.314h14.661V15.344z"/>
					</g>
				</g>
			</g>
		</g>
		<path i:knockout="Off" fill="none" d="M32,32H0V0h32V32z"/>
	</g>
</svg>
