<?xml version="1.0" encoding="utf-8"?>
<!-- Generator: Adobe Illustrator 10.0, SVG Export Plug-In . SVG Version: 3.0.0 Build 77)  -->
<!DOCTYPE svg PUBLIC "-//W3C//DTD SVG 1.0//EN"    "http://www.w3.org/TR/2001/REC-SVG-20010904/DTD/svg10.dtd" [
	<!ENTITY ns_flows "http://ns.adobe.com/Flows/1.0/">
	<!ENTITY ns_extend "http://ns.adobe.com/Extensibility/1.0/">
	<!ENTITY ns_ai "http://ns.adobe.com/AdobeIllustrator/10.0/">
	<!ENTITY ns_graphs "http://ns.adobe.com/Graphs/1.0/">
	<!ENTITY ns_vars "http://ns.adobe.com/Variables/1.0/">
	<!ENTITY ns_imrep "http://ns.adobe.com/ImageReplacement/1.0/">
	<!ENTITY ns_sfw "http://ns.adobe.com/SaveForWeb/1.0/">
	<!ENTITY ns_custom "http://ns.adobe.com/GenericCustomNamespace/1.0/">
	<!ENTITY ns_adobe_xpath "http://ns.adobe.com/XPath/1.0/">
	<!ENTITY ns_svg "http://www.w3.org/2000/svg">
	<!ENTITY ns_xlink "http://www.w3.org/1999/xlink">
]>
<svg 
	 xmlns:x="&ns_extend;" xmlns:i="&ns_ai;" xmlns:graph="&ns_graphs;" i:viewOrigin="0 32" i:rulerOrigin="0 0" i:pageBounds="0 32 32 0"
	 xmlns="&ns_svg;" xmlns:xlink="&ns_xlink;" xmlns:a="http://ns.adobe.com/AdobeSVGViewerExtensions/3.0/" width="32" height="32"
	 viewBox="0 0 32 32" overflow="visible" enable-background="new 0 0 32 32" xml:space="preserve">
	<metadata>
		<variableSets  xmlns="&ns_vars;">
			<variableSet  varSetName="binding1" locked="none">
				<variables></variables>
				<v:sampleDataSets  xmlns="&ns_custom;" xmlns:v="&ns_vars;"></v:sampleDataSets>
			</variableSet>
		</variableSets>
		<sfw  xmlns="&ns_sfw;">
			<slices></slices>
			<sliceSourceBounds  y="0" x="0" width="32" height="32" bottomLeftOrigin="true"></sliceSourceBounds>
		</sfw>
	</metadata>
	<g id="圖層_1" i:layer="yes" i:dimmedPercent="50" i:rgbTrio="#4F008000FFFF">
		<g>
			<path i:knockout="Off" fill="none" d="M32,32H0V0h32V32z"/>
			<linearGradient id="XMLID_1_" gradientUnits="userSpaceOnUse" x1="16.0005" y1="0.6094" x2="16.0005" y2="31.3921">
				<stop  offset="0.0056" style="stop-color:#FF7800"/>
				<stop  offset="1" style="stop-color:#9A2400"/>
				<a:midPointStop  offset="0.0056" style="stop-color:#FF7800"/>
				<a:midPointStop  offset="0.5" style="stop-color:#FF7800"/>
				<a:midPointStop  offset="1" style="stop-color:#9A2400"/>
			</linearGradient>
			<path i:knockout="Off" fill-rule="evenodd" clip-rule="evenodd" fill="url(#XMLID_1_)" d="M6.147,6.893
				C6.159,7.36,6.244,7.668,6.396,8.085c0,0-1.543,0.958-1.577,1.002c-0.389,0.508,0.324,1.833,1.022,1.66
				c0.118,0,1.586-1.069,1.586-1.069c0.349,0.337,0.754,0.615,1.202,0.818c0,0-0.555,1.602-0.515,1.602
				c0.12,0.557,1.48,0.934,1.958,0.536c0.04-0.039,0.346-1.767,0.346-1.767c0.478-0.007,0.936-0.092,1.363-0.245l0.991,1.533
				c0.638,0.239,1.643-0.509,1.723-1.065c-0.038,0.039-1.041-1.574-1.041-1.574c0.321-0.349,0.586-0.749,0.778-1.191l1.806,0.352
				c0.519-0.198,0.646-1.35,0.367-1.825c-0.082,0.039-1.833-0.389-1.833-0.389c-0.019-0.444-0.107-0.873-0.254-1.271
				c0,0,1.129-0.583,1.446-1.021c0.318-0.436-0.457-1.675-0.975-1.675c-0.516,0-1.589,1.041-1.589,1.041
				C12.87,3.233,12.489,2.984,12.074,2.8c0,0,0.351-1.756,0.312-1.796c-0.305-0.55-1.3-0.753-1.857-0.395
				c-0.039,0.118-0.414,1.833-0.414,1.833C9.666,2.469,9.238,2.565,8.837,2.721c0,0-0.98-1.659-0.94-1.581
				C7.232,0.813,6.143,1.614,6.143,2.131l1.102,1.681C6.954,4.133,6.57,4.453,6.388,4.851c0,0-1.695-0.355-1.734-0.346
				C4.072,4.664,3.771,6.088,4.288,6.454C4.333,6.486,6.147,6.893,6.147,6.893z M10.36,4.597c1.102,0,1.995,0.893,1.995,1.994
				s-0.894,1.994-1.995,1.994c-1.101,0-1.994-0.893-1.994-1.994S9.26,4.597,10.36,4.597z M27.713,16.38
				c-0.104,0.052-2.355-0.499-2.355-0.499c-0.027-0.572-0.14-1.122-0.329-1.635c0,0,1.451-0.75,1.863-1.313
				c0.408-0.563-0.589-2.152-1.254-2.152c-0.666,0-2.047,1.336-2.047,1.336c-0.426-0.389-0.914-0.71-1.448-0.948
				c0,0,0.452-2.256,0.401-2.309c-0.396-0.706-1.672-0.969-2.39-0.508c-0.051,0.152-0.533,2.358-0.533,2.358
				c-0.577,0.034-1.128,0.158-1.643,0.357c0,0-1.262-2.135-1.212-2.032c-0.855-0.424-2.254,0.609-2.254,1.273l1.417,2.163
				c-0.376,0.412-0.869,0.824-1.103,1.337c0,0-2.184-0.457-2.232-0.445c-0.747,0.205-1.136,2.036-0.47,2.508
				c0.059,0.04,2.393,0.566,2.393,0.566c0.015,0.599,0.125,0.995,0.318,1.533c0,0-1.985,1.23-2.029,1.287
				c-0.5,0.652,0.419,2.359,1.316,2.134c0.152,0,2.04-1.374,2.04-1.374c0.448,0.436,0.972,0.793,1.547,1.052
				c0,0-0.713,2.064-0.66,2.064c0.151,0.715,1.902,1.198,2.517,0.688c0.051-0.05,0.446-2.273,0.446-2.273
				c0.612-0.01,1.203-0.117,1.75-0.313l1.277,1.974c0.82,0.306,2.115-0.657,2.216-1.374c-0.049,0.052-1.338-2.023-1.338-2.023
				c0.414-0.446,0.754-0.964,1.001-1.532l2.324,0.453C27.909,18.474,28.07,16.995,27.713,16.38z M19.938,18.611
				c-1.418,0-2.565-1.147-2.565-2.565c0-1.416,1.147-2.563,2.565-2.563c1.416,0,2.565,1.147,2.565,2.563
				C22.504,17.464,21.354,18.611,19.938,18.611z M14.572,25.219c-0.019-0.444-0.107-0.872-0.254-1.27c0,0,1.129-0.584,1.446-1.022
				c0.318-0.436-0.457-1.674-0.975-1.674c-0.516,0-1.589,1.04-1.589,1.04c-0.331-0.303-0.712-0.554-1.127-0.737
				c0,0,0.351-1.753,0.312-1.795c-0.305-0.547-1.3-0.751-1.857-0.395c-0.039,0.118-0.414,1.833-0.414,1.833
				c-0.448,0.029-0.876,0.125-1.277,0.278c0,0-0.98-1.66-0.94-1.58c-0.664-0.328-1.754,0.473-1.754,0.99l1.102,1.682
				c-0.29,0.32-0.674,0.641-0.856,1.039c0,0-1.695-0.355-1.734-0.346c-0.581,0.159-0.883,1.582-0.365,1.949
				c0.045,0.032,1.859,0.44,1.859,0.44c0.012,0.466,0.097,0.774,0.248,1.189c0,0-1.543,0.958-1.577,1.001
				c-0.389,0.51,0.324,1.833,1.022,1.661c0.118,0,1.586-1.069,1.586-1.069c0.349,0.337,0.754,0.614,1.202,0.817
				c0,0-0.555,1.604-0.515,1.604c0.12,0.556,1.48,0.932,1.958,0.536c0.04-0.04,0.346-1.769,0.346-1.769
				c0.478-0.005,0.936-0.09,1.363-0.243l0.991,1.532c0.638,0.239,1.643-0.508,1.723-1.064c-0.038,0.041-1.041-1.575-1.041-1.575
				c0.321-0.347,0.586-0.748,0.778-1.19l1.806,0.351c0.519-0.198,0.646-1.348,0.367-1.826
				C16.323,25.646,14.572,25.219,14.572,25.219z M10.36,27.343c-1.101,0-1.994-0.894-1.994-1.996c0-1.099,0.894-1.992,1.994-1.992
				c1.102,0,1.995,0.894,1.995,1.992C12.355,26.449,11.462,27.343,10.36,27.343z"/>
		</g>
	</g>
</svg>
