<?xml version="1.0" encoding="utf-8"?>
<!-- Generator: Adobe Illustrator 10.0, SVG Export Plug-In . SVG Version: 3.0.0 Build 77)  -->
<!DOCTYPE svg PUBLIC "-//W3C//DTD SVG 1.0//EN"    "http://www.w3.org/TR/2001/REC-SVG-20010904/DTD/svg10.dtd" [
	<!ENTITY ns_flows "http://ns.adobe.com/Flows/1.0/">
	<!ENTITY ns_extend "http://ns.adobe.com/Extensibility/1.0/">
	<!ENTITY ns_ai "http://ns.adobe.com/AdobeIllustrator/10.0/">
	<!ENTITY ns_graphs "http://ns.adobe.com/Graphs/1.0/">
	<!ENTITY ns_vars "http://ns.adobe.com/Variables/1.0/">
	<!ENTITY ns_imrep "http://ns.adobe.com/ImageReplacement/1.0/">
	<!ENTITY ns_sfw "http://ns.adobe.com/SaveForWeb/1.0/">
	<!ENTITY ns_custom "http://ns.adobe.com/GenericCustomNamespace/1.0/">
	<!ENTITY ns_adobe_xpath "http://ns.adobe.com/XPath/1.0/">
	<!ENTITY ns_svg "http://www.w3.org/2000/svg">
	<!ENTITY ns_xlink "http://www.w3.org/1999/xlink">
]>
<svg 
	 xmlns:x="&ns_extend;" xmlns:i="&ns_ai;" xmlns:graph="&ns_graphs;" i:viewOrigin="-4.882813e-004 32" i:rulerOrigin="0 0" i:pageBounds="0 32 32 0"
	 xmlns="&ns_svg;" xmlns:xlink="&ns_xlink;" xmlns:a="http://ns.adobe.com/AdobeSVGViewerExtensions/3.0/" width="32" height="32"
	 viewBox="0 0 32 32" overflow="visible" enable-background="new 0 0 32 32" xml:space="preserve">
	<metadata>
		<variableSets  xmlns="&ns_vars;">
			<variableSet  varSetName="binding1" locked="none">
				<variables></variables>
				<v:sampleDataSets  xmlns="&ns_custom;" xmlns:v="&ns_vars;"></v:sampleDataSets>
			</variableSet>
		</variableSets>
		<sfw  xmlns="&ns_sfw;">
			<slices></slices>
			<sliceSourceBounds  y="0" x="0" width="32" height="32" bottomLeftOrigin="true"></sliceSourceBounds>
		</sfw>
	</metadata>
	<g id="圖層_1" i:layer="yes" i:dimmedPercent="50" i:rgbTrio="#4F008000FFFF">
		<path i:knockout="Off" fill="none" d="M32,32H0V0h32V32z"/>
		<linearGradient id="XMLID_1_" gradientUnits="userSpaceOnUse" x1="16.1304" y1="3.8643" x2="16.1304" y2="28.1353">
			<stop  offset="0.0056" style="stop-color:#FF7800"/>
			<stop  offset="1" style="stop-color:#9A2400"/>
			<a:midPointStop  offset="0.0056" style="stop-color:#FF7800"/>
			<a:midPointStop  offset="0.5" style="stop-color:#FF7800"/>
			<a:midPointStop  offset="1" style="stop-color:#9A2400"/>
		</linearGradient>
		<path i:knockout="Off" fill-rule="evenodd" clip-rule="evenodd" fill="url(#XMLID_1_)" d="M28.266,27.043
			c0,0.604-0.488,1.092-1.092,1.092H5.086c-0.603,0-1.091-0.488-1.091-1.092V4.956c0-0.603,0.489-1.091,1.091-1.091h22.088
			c0.604,0,1.092,0.489,1.092,1.091V27.043z"/>
		<path i:knockout="Off" opacity="0.4" fill-rule="evenodd" clip-rule="evenodd" fill="#FFFFFF" d="M25.495,17.738H6.745V3.864
			h18.75V17.738z"/>
		<path i:knockout="Off" opacity="0.2" d="M25.548,28.135v-6.113c0-0.467-0.377-0.845-0.846-0.845H7.591
			c-0.467,0-0.846,0.378-0.846,0.845v6.113H25.548z"/>
		<linearGradient id="XMLID_2_" gradientUnits="userSpaceOnUse" x1="21.0063" y1="31.0029" x2="9.8692" y2="22.7966">
			<stop  offset="0.0056" style="stop-color:#EBEBEB"/>
			<stop  offset="0.5112" style="stop-color:#A1A1A1"/>
			<stop  offset="1" style="stop-color:#EBEBEB"/>
			<a:midPointStop  offset="0.0056" style="stop-color:#EBEBEB"/>
			<a:midPointStop  offset="0.5" style="stop-color:#EBEBEB"/>
			<a:midPointStop  offset="0.5112" style="stop-color:#A1A1A1"/>
			<a:midPointStop  offset="0.5" style="stop-color:#A1A1A1"/>
			<a:midPointStop  offset="1" style="stop-color:#EBEBEB"/>
		</linearGradient>
		<path i:knockout="Off" fill="url(#XMLID_2_)" d="M17.708,21.476H7.85c-0.444,0-0.803,0.359-0.803,0.803v5.534h11.464v-5.534
			C18.511,21.835,18.153,21.476,17.708,21.476z M10.782,26.609c0,0.123-0.06,0.223-0.133,0.223H8.227
			c-0.073,0-0.133-0.1-0.133-0.223v-4.055c0-0.123,0.06-0.223,0.133-0.223h2.422c0.073,0,0.133,0.1,0.133,0.223V26.609z"/>
		<linearGradient id="XMLID_3_" gradientUnits="userSpaceOnUse" x1="9.6787" y1="0.5249" x2="9.6787" y2="20.2056">
			<stop  offset="0.0056" style="stop-color:#92FF00"/>
			<stop  offset="1" style="stop-color:#53A500"/>
			<a:midPointStop  offset="0.0056" style="stop-color:#92FF00"/>
			<a:midPointStop  offset="0.5" style="stop-color:#92FF00"/>
			<a:midPointStop  offset="1" style="stop-color:#53A500"/>
		</linearGradient>
		
			<path i:knockout="Off" fill-rule="evenodd" clip-rule="evenodd" fill="url(#XMLID_3_)" stroke="#FFFFFF" stroke-width="0.3562" stroke-linecap="round" stroke-linejoin="round" d="
			M8.066,8.361v4.214L1.001,6.549l7.065-6.024v3.562c2.188,0,10.291,0.312,10.291,8.014c0,7.703-8.993,8.104-9.394,8.104
			c2.137-0.565,6.411-1.337,6.411-6.59C15.375,12.848,15.631,8.361,8.066,8.361z"/>
	</g>
</svg>
