<?xml version="1.0" encoding="utf-8"?>
<!-- Generator: Adobe Illustrator 10.0, SVG Export Plug-In . SVG Version: 3.0.0 Build 77)  -->
<!DOCTYPE svg PUBLIC "-//W3C//DTD SVG 1.0//EN"    "http://www.w3.org/TR/2001/REC-SVG-20010904/DTD/svg10.dtd" [
	<!ENTITY ns_flows "http://ns.adobe.com/Flows/1.0/">
	<!ENTITY ns_extend "http://ns.adobe.com/Extensibility/1.0/">
	<!ENTITY ns_ai "http://ns.adobe.com/AdobeIllustrator/10.0/">
	<!ENTITY ns_graphs "http://ns.adobe.com/Graphs/1.0/">
	<!ENTITY ns_vars "http://ns.adobe.com/Variables/1.0/">
	<!ENTITY ns_imrep "http://ns.adobe.com/ImageReplacement/1.0/">
	<!ENTITY ns_sfw "http://ns.adobe.com/SaveForWeb/1.0/">
	<!ENTITY ns_custom "http://ns.adobe.com/GenericCustomNamespace/1.0/">
	<!ENTITY ns_adobe_xpath "http://ns.adobe.com/XPath/1.0/">
	<!ENTITY ns_svg "http://www.w3.org/2000/svg">
	<!ENTITY ns_xlink "http://www.w3.org/1999/xlink">
]>
<svg 
	 xmlns:x="&ns_extend;" xmlns:i="&ns_ai;" xmlns:graph="&ns_graphs;" i:viewOrigin="0 31.9995" i:rulerOrigin="0 0" i:pageBounds="0 32 32 0"
	 xmlns="&ns_svg;" xmlns:xlink="&ns_xlink;" xmlns:a="http://ns.adobe.com/AdobeSVGViewerExtensions/3.0/" width="32" height="32"
	 viewBox="0 0 32 32" overflow="visible" enable-background="new 0 0 32 32" xml:space="preserve">
	<metadata>
		<variableSets  xmlns="&ns_vars;">
			<variableSet  varSetName="binding1" locked="none">
				<variables></variables>
				<v:sampleDataSets  xmlns="&ns_custom;" xmlns:v="&ns_vars;"></v:sampleDataSets>
			</variableSet>
		</variableSets>
		<sfw  xmlns="&ns_sfw;">
			<slices></slices>
			<sliceSourceBounds  y="0" x="0" width="32" height="32" bottomLeftOrigin="true"></sliceSourceBounds>
		</sfw>
	</metadata>
	<g id="_x00B9_柉x00BC_h_x005F_1" i:layer="yes" i:dimmedPercent="50" i:rgbTrio="#4F008000FFFF">
		<linearGradient id="XMLID_1_" gradientUnits="userSpaceOnUse" x1="15.8755" y1="7.501" x2="15.8755" y2="36.5015">
			<stop  offset="0.0056" style="stop-color:#FF7800"/>
			<stop  offset="1" style="stop-color:#9A2400"/>
			<a:midPointStop  offset="0.0056" style="stop-color:#FF7800"/>
			<a:midPointStop  offset="0.5" style="stop-color:#FF7800"/>
			<a:midPointStop  offset="1" style="stop-color:#9A2400"/>
		</linearGradient>
		<path i:knockout="Off" fill-rule="evenodd" clip-rule="evenodd" fill="url(#XMLID_1_)" d="M27.668,30.33H4.083V1.865h23.584V30.33
			z"/>
		<path i:knockout="Off" fill="none" d="M32,32H0V0h32V32z"/>
		<g>
			<g>
				<linearGradient id="XMLID_2_" gradientUnits="userSpaceOnUse" x1="37.1484" y1="-1.7495" x2="17.8156" y2="19.0003">
					<stop  offset="0.0056" style="stop-color:#FF7800"/>
					<stop  offset="1" style="stop-color:#9A2400"/>
					<a:midPointStop  offset="0.0056" style="stop-color:#FF7800"/>
					<a:midPointStop  offset="0.5" style="stop-color:#FF7800"/>
					<a:midPointStop  offset="1" style="stop-color:#9A2400"/>
				</linearGradient>
				<path i:knockout="Off" fill-rule="evenodd" clip-rule="evenodd" fill="url(#XMLID_2_)" d="M29.277,10.331
					c0,0.746-0.604,1.35-1.35,1.35c0-3.307,0-4.464,0-7.164c0.746,0,1.35,0.604,1.35,1.35V10.331z"/>
				<linearGradient id="XMLID_3_" gradientUnits="userSpaceOnUse" x1="41.0898" y1="1.9224" x2="21.7569" y2="22.6723">
					<stop  offset="0.0056" style="stop-color:#FF7800"/>
					<stop  offset="1" style="stop-color:#9A2400"/>
					<a:midPointStop  offset="0.0056" style="stop-color:#FF7800"/>
					<a:midPointStop  offset="0.5" style="stop-color:#FF7800"/>
					<a:midPointStop  offset="1" style="stop-color:#9A2400"/>
				</linearGradient>
				<path i:knockout="Off" fill-rule="evenodd" clip-rule="evenodd" fill="url(#XMLID_3_)" d="M29.277,18.232
					c0,0.744-0.604,1.35-1.35,1.35c0-3.307,0-4.464,0-7.164c0.746,0,1.35,0.604,1.35,1.351V18.232z"/>
				<linearGradient id="XMLID_4_" gradientUnits="userSpaceOnUse" x1="45.0313" y1="5.5947" x2="25.6984" y2="26.3445">
					<stop  offset="0.0056" style="stop-color:#FF7800"/>
					<stop  offset="1" style="stop-color:#9A2400"/>
					<a:midPointStop  offset="0.0056" style="stop-color:#FF7800"/>
					<a:midPointStop  offset="0.5" style="stop-color:#FF7800"/>
					<a:midPointStop  offset="1" style="stop-color:#9A2400"/>
				</linearGradient>
				<path i:knockout="Off" fill-rule="evenodd" clip-rule="evenodd" fill="url(#XMLID_4_)" d="M29.277,26.134
					c0,0.744-0.604,1.35-1.35,1.35c0-3.307,0-4.465,0-7.164c0.746,0,1.35,0.604,1.35,1.35V26.134z"/>
			</g>
			<linearGradient id="XMLID_5_" gradientUnits="userSpaceOnUse" x1="34.6279" y1="-4.0962" x2="15.294" y2="16.6548">
				<stop  offset="0.0056" style="stop-color:#FF7800"/>
				<stop  offset="1" style="stop-color:#9A2400"/>
				<a:midPointStop  offset="0.0056" style="stop-color:#FF7800"/>
				<a:midPointStop  offset="0.5" style="stop-color:#FF7800"/>
				<a:midPointStop  offset="1" style="stop-color:#9A2400"/>
			</linearGradient>
			<path i:knockout="Off" fill-rule="evenodd" clip-rule="evenodd" fill="url(#XMLID_5_)" d="M27.191,1.386H4.613
				c-0.49,0-0.89,0.4-0.89,0.891v0.347H3.61c-0.49,0-0.888,0.398-0.888,0.89v0.085c0,0.49,0.397,0.886,0.888,0.886h0.114V6.18H3.61
				c-0.49,0-0.888,0.397-0.888,0.89v0.083c0,0.493,0.397,0.89,0.888,0.89h0.114v1.693H3.61c-0.49,0-0.888,0.398-0.888,0.89v0.085
				c0,0.49,0.397,0.886,0.888,0.886h0.114v1.695H3.61c-0.49,0-0.888,0.397-0.888,0.89v0.083c0,0.495,0.397,0.891,0.888,0.891h0.114
				v1.693H3.61c-0.49,0-0.888,0.4-0.888,0.89v0.086c0,0.49,0.397,0.889,0.888,0.889h0.114v1.691H3.61
				c-0.49,0-0.888,0.398-0.888,0.889v0.082c0,0.494,0.397,0.893,0.888,0.893h0.114v1.693H3.61c-0.49,0-0.888,0.396-0.888,0.891
				v0.084c0,0.49,0.397,0.887,0.888,0.887h0.114v1.695H3.61c-0.49,0-0.888,0.398-0.888,0.891v0.082c0,0.492,0.397,0.889,0.888,0.889
				h0.114v0.348c0,0.492,0.399,0.889,0.89,0.889h22.578c0.492,0,0.891-0.396,0.891-0.889V2.277
				C28.082,1.786,27.684,1.386,27.191,1.386z M27.545,29.726c0,0.195-0.158,0.357-0.354,0.357H4.613
				c-0.195,0-0.355-0.162-0.355-0.357v-0.348H5.27c0.491,0,0.891-0.396,0.891-0.889v-0.082c0-0.492-0.399-0.891-0.891-0.891H4.258
				v-1.695H5.27c0.491,0,0.891-0.396,0.891-0.887v-0.084c0-0.494-0.399-0.891-0.891-0.891H4.258v-1.693H5.27
				c0.491,0,0.891-0.398,0.891-0.893v-0.082c0-0.49-0.399-0.889-0.891-0.889H4.258v-1.691H5.27c0.491,0,0.891-0.398,0.891-0.889
				v-0.086c0-0.49-0.399-0.89-0.891-0.89H4.258v-1.693H5.27c0.491,0,0.891-0.396,0.891-0.891v-0.083c0-0.492-0.399-0.89-0.891-0.89
				H4.258v-1.695H5.27c0.491,0,0.891-0.396,0.891-0.886v-0.085c0-0.491-0.399-0.89-0.891-0.89H4.258V8.043H5.27
				c0.491,0,0.891-0.397,0.891-0.89V7.07c0-0.493-0.399-0.89-0.891-0.89H4.258V4.484H5.27c0.491,0,0.891-0.396,0.891-0.886V3.513
				c0-0.491-0.399-0.89-0.891-0.89H4.258V2.277c0-0.197,0.161-0.355,0.355-0.355h22.578c0.195,0,0.354,0.158,0.354,0.355V29.726z"/>
		</g>
	</g>
</svg>
