<?xml version="1.0" encoding="utf-8"?>
<!-- Generator: Adobe Illustrator 10.0, SVG Export Plug-In . SVG Version: 3.0.0 Build 77)  -->
<!DOCTYPE svg PUBLIC "-//W3C//DTD SVG 1.0//EN"    "http://www.w3.org/TR/2001/REC-SVG-20010904/DTD/svg10.dtd" [
	<!ENTITY ns_flows "http://ns.adobe.com/Flows/1.0/">
	<!ENTITY ns_extend "http://ns.adobe.com/Extensibility/1.0/">
	<!ENTITY ns_ai "http://ns.adobe.com/AdobeIllustrator/10.0/">
	<!ENTITY ns_graphs "http://ns.adobe.com/Graphs/1.0/">
	<!ENTITY ns_vars "http://ns.adobe.com/Variables/1.0/">
	<!ENTITY ns_imrep "http://ns.adobe.com/ImageReplacement/1.0/">
	<!ENTITY ns_sfw "http://ns.adobe.com/SaveForWeb/1.0/">
	<!ENTITY ns_custom "http://ns.adobe.com/GenericCustomNamespace/1.0/">
	<!ENTITY ns_adobe_xpath "http://ns.adobe.com/XPath/1.0/">
	<!ENTITY ns_svg "http://www.w3.org/2000/svg">
	<!ENTITY ns_xlink "http://www.w3.org/1999/xlink">
]>
<svg 
	 xmlns:x="&ns_extend;" xmlns:i="&ns_ai;" xmlns:graph="&ns_graphs;" i:viewOrigin="0 32" i:rulerOrigin="0 0" i:pageBounds="0 32 32 0"
	 xmlns="&ns_svg;" xmlns:xlink="&ns_xlink;" xmlns:a="http://ns.adobe.com/AdobeSVGViewerExtensions/3.0/"
	 width="32" height="32.001" viewBox="0 0 32 32.001" overflow="visible" enable-background="new 0 0 32 32.001"
	 xml:space="preserve">
	<metadata>
		<variableSets  xmlns="&ns_vars;">
			<variableSet  varSetName="binding1" locked="none">
				<variables></variables>
				<v:sampleDataSets  xmlns="&ns_custom;" xmlns:v="&ns_vars;"></v:sampleDataSets>
			</variableSet>
		</variableSets>
		<sfw  xmlns="&ns_sfw;">
			<slices></slices>
			<sliceSourceBounds  y="-0.001" x="0" width="32" height="32.001" bottomLeftOrigin="true"></sliceSourceBounds>
		</sfw>
	</metadata>
	<g id="圖層_1" i:layer="yes" i:dimmedPercent="50" i:rgbTrio="#4F008000FFFF">
		<g i:knockout="Off">
			<g>
				
					<linearGradient id="XMLID_1_" gradientUnits="userSpaceOnUse" x1="15.6753" y1="1.2793" x2="15.6753" y2="29.981" gradientTransform="matrix(1 0 0 1 0.2461 0.3545)">
					<stop  offset="0.0056" style="stop-color:#FF7800"/>
					<stop  offset="1" style="stop-color:#9A2400"/>
					<a:midPointStop  offset="0.0056" style="stop-color:#FF7800"/>
					<a:midPointStop  offset="0.5" style="stop-color:#FF7800"/>
					<a:midPointStop  offset="1" style="stop-color:#9A2400"/>
				</linearGradient>
				<path i:knockout="Off" fill-rule="evenodd" clip-rule="evenodd" fill="url(#XMLID_1_)" d="M18.838,1.634
					C11.695,1.646,4.979,1.666,6.236,1.666c-1.77,0-3.203,1.433-3.203,3.203v22.263c0,1.768,1.434,3.203,3.203,3.203h19.371
					c1.77,0,3.203-1.436,3.203-3.203V9.943L18.838,1.634z"/>
			</g>
		</g>
		<path i:knockout="Off" fill="none" d="M32,32.001H0V0h32V32.001z"/>
		<g>
			<path i:knockout="Off" fill="#FFFFFF" d="M20.433,11.344c0,2.467-2,4.467-4.466,4.467c-2.467,0-4.467-2-4.467-4.467
				s2-4.467,4.467-4.467C18.433,6.877,20.433,8.877,20.433,11.344z"/>
			<path i:knockout="Off" fill="#FFFFFF" d="M22.328,19.544c0-3.347-2.837-4.655-6.335-4.655c-3.499,0-6.335,1.309-6.335,4.655
				c0,2.223,0,5.58,0,5.58h12.684C22.342,23.649,22.328,21.31,22.328,19.544z"/>
		</g>
		<linearGradient id="XMLID_2_" gradientUnits="userSpaceOnUse" x1="22.835" y1="-13.2939" x2="24.3925" y2="20.5931">
			<stop  offset="0.0056" style="stop-color:#FF7800"/>
			<stop  offset="1" style="stop-color:#9A2400"/>
			<a:midPointStop  offset="0.0056" style="stop-color:#FF7800"/>
			<a:midPointStop  offset="0.5" style="stop-color:#FF7800"/>
			<a:midPointStop  offset="1" style="stop-color:#9A2400"/>
		</linearGradient>
		<path i:knockout="Off" fill-rule="evenodd" clip-rule="evenodd" fill="url(#XMLID_2_)" d="M28.889,9.943l-9.973-8.31
			c0,1.401,0,8.294,0,8.294L28.889,9.943z"/>
	</g>
</svg>
