<?xml version="1.0" encoding="utf-8"?>
<!-- Generator: Adobe Illustrator 10.0, SVG Export Plug-In . SVG Version: 3.0.0 Build 77)  -->
<!DOCTYPE svg PUBLIC "-//W3C//DTD SVG 1.0//EN"    "http://www.w3.org/TR/2001/REC-SVG-20010904/DTD/svg10.dtd" [
	<!ENTITY ns_flows "http://ns.adobe.com/Flows/1.0/">
	<!ENTITY ns_extend "http://ns.adobe.com/Extensibility/1.0/">
	<!ENTITY ns_ai "http://ns.adobe.com/AdobeIllustrator/10.0/">
	<!ENTITY ns_graphs "http://ns.adobe.com/Graphs/1.0/">
	<!ENTITY ns_vars "http://ns.adobe.com/Variables/1.0/">
	<!ENTITY ns_imrep "http://ns.adobe.com/ImageReplacement/1.0/">
	<!ENTITY ns_sfw "http://ns.adobe.com/SaveForWeb/1.0/">
	<!ENTITY ns_custom "http://ns.adobe.com/GenericCustomNamespace/1.0/">
	<!ENTITY ns_adobe_xpath "http://ns.adobe.com/XPath/1.0/">
	<!ENTITY ns_svg "http://www.w3.org/2000/svg">
	<!ENTITY ns_xlink "http://www.w3.org/1999/xlink">
]>
<svg 
	 xmlns:x="&ns_extend;" xmlns:i="&ns_ai;" xmlns:graph="&ns_graphs;" i:viewOrigin="0 32" i:rulerOrigin="0 0" i:pageBounds="0 32 32 0"
	 xmlns="&ns_svg;" xmlns:xlink="&ns_xlink;" xmlns:a="http://ns.adobe.com/AdobeSVGViewerExtensions/3.0/" width="32" height="32"
	 viewBox="0 0 32 32" overflow="visible" enable-background="new 0 0 32 32" xml:space="preserve">
	<metadata>
		<variableSets  xmlns="&ns_vars;">
			<variableSet  varSetName="binding1" locked="none">
				<variables></variables>
				<v:sampleDataSets  xmlns="&ns_custom;" xmlns:v="&ns_vars;"></v:sampleDataSets>
			</variableSet>
		</variableSets>
		<sfw  xmlns="&ns_sfw;">
			<slices></slices>
			<sliceSourceBounds  y="0" x="0" width="32" height="32" bottomLeftOrigin="true"></sliceSourceBounds>
		</sfw>
	</metadata>
	<g id="_x00B9_柉x00BC_h_x005F_1" i:layer="yes" i:dimmedPercent="50" i:rgbTrio="#4F008000FFFF">
		<g>
			<g>
				<g i:knockout="Off">
					<g>
						
							<linearGradient id="XMLID_1_" gradientUnits="userSpaceOnUse" x1="-30" y1="15.6338" x2="-30" y2="44.3345" gradientTransform="matrix(1 0 0 1 46 -14)">
							<stop  offset="0.0056" style="stop-color:#FF7800"/>
							<stop  offset="1" style="stop-color:#9A2400"/>
							<a:midPointStop  offset="0.0056" style="stop-color:#FF7800"/>
							<a:midPointStop  offset="0.5" style="stop-color:#FF7800"/>
							<a:midPointStop  offset="1" style="stop-color:#9A2400"/>
						</linearGradient>
						<path i:knockout="Off" fill-rule="evenodd" clip-rule="evenodd" fill="url(#XMLID_1_)" d="M18.916,1.634
							C11.773,1.646,5.058,1.666,6.314,1.666c-1.77,0-3.203,1.433-3.203,3.202v22.263c0,1.768,1.434,3.203,3.203,3.203h19.371
							c1.77,0,3.203-1.436,3.203-3.203V9.943L18.916,1.634z"/>
					</g>
				</g>
				<path i:knockout="Off" fill="none" d="M32,32H0V0h32V32z"/>
				<linearGradient id="XMLID_2_" gradientUnits="userSpaceOnUse" x1="22.835" y1="-13.2939" x2="24.3925" y2="20.5931">
					<stop  offset="0.0056" style="stop-color:#FF7800"/>
					<stop  offset="1" style="stop-color:#9A2400"/>
					<a:midPointStop  offset="0.0056" style="stop-color:#FF7800"/>
					<a:midPointStop  offset="0.5" style="stop-color:#FF7800"/>
					<a:midPointStop  offset="1" style="stop-color:#9A2400"/>
				</linearGradient>
				<path i:knockout="Off" fill-rule="evenodd" clip-rule="evenodd" fill="url(#XMLID_2_)" d="M28.889,9.943l-9.973-8.31
					c0,1.401,0,8.293,0,8.293L28.889,9.943z"/>
			</g>
		</g>
		<path i:knockout="Off" fill="none" d="M32,32H0V0h32V32z"/>
		<path i:knockout="Off" fill="#FFFFFF" d="M17.585,11.092l0.01,0.007l1.229,0.898l0.008,0.007l2.116-2.893l0.427,0.312l1.189,3.169
			l-2.167,2.963l-2.972-0.169l-6.723,10.815l-0.234-0.025c-0.056-0.008-1.392-0.168-2.355-0.873
			c-0.966-0.707-1.484-1.906-1.505-1.957l-0.091-0.213l8.27-9.686l-1.061-2.772l2.167-2.962l3.379,0.174L19.701,8.2L17.585,11.092z"
			/>
	</g>
</svg>
