<?xml version="1.0" encoding="utf-8"?>
<!-- Generator: Adobe Illustrator 10.0, SVG Export Plug-In . SVG Version: 3.0.0 Build 77)  -->
<!DOCTYPE svg PUBLIC "-//W3C//DTD SVG 1.0//EN"    "http://www.w3.org/TR/2001/REC-SVG-20010904/DTD/svg10.dtd" [
	<!ENTITY ns_flows "http://ns.adobe.com/Flows/1.0/">
	<!ENTITY ns_extend "http://ns.adobe.com/Extensibility/1.0/">
	<!ENTITY ns_ai "http://ns.adobe.com/AdobeIllustrator/10.0/">
	<!ENTITY ns_graphs "http://ns.adobe.com/Graphs/1.0/">
	<!ENTITY ns_vars "http://ns.adobe.com/Variables/1.0/">
	<!ENTITY ns_imrep "http://ns.adobe.com/ImageReplacement/1.0/">
	<!ENTITY ns_sfw "http://ns.adobe.com/SaveForWeb/1.0/">
	<!ENTITY ns_custom "http://ns.adobe.com/GenericCustomNamespace/1.0/">
	<!ENTITY ns_adobe_xpath "http://ns.adobe.com/XPath/1.0/">
	<!ENTITY ns_svg "http://www.w3.org/2000/svg">
	<!ENTITY ns_xlink "http://www.w3.org/1999/xlink">
]>
<svg 
	 xmlns:x="&ns_extend;" xmlns:i="&ns_ai;" xmlns:graph="&ns_graphs;" i:viewOrigin="0 32" i:rulerOrigin="0 0" i:pageBounds="0 32 32 0"
	 xmlns="&ns_svg;" xmlns:xlink="&ns_xlink;" xmlns:a="http://ns.adobe.com/AdobeSVGViewerExtensions/3.0/" width="32" height="32"
	 viewBox="0 0 32 32" overflow="visible" enable-background="new 0 0 32 32" xml:space="preserve">
	<metadata>
		<variableSets  xmlns="&ns_vars;">
			<variableSet  varSetName="binding1" locked="none">
				<variables></variables>
				<v:sampleDataSets  xmlns="&ns_custom;" xmlns:v="&ns_vars;"></v:sampleDataSets>
			</variableSet>
		</variableSets>
		<sfw  xmlns="&ns_sfw;">
			<slices></slices>
			<sliceSourceBounds  y="0" x="0" width="32" height="32" bottomLeftOrigin="true"></sliceSourceBounds>
		</sfw>
	</metadata>
	<g id="_x00B9_柉x00BC_h_x005F_1" i:layer="yes" i:dimmedPercent="50" i:rgbTrio="#4F008000FFFF">
		<path i:knockout="Off" fill="none" d="M32,32H0V0h32V32z"/>
		<g>
			
				<linearGradient id="XMLID_1_" gradientUnits="userSpaceOnUse" x1="-5.0205" y1="10.1436" x2="-5.0205" y2="21.3872" gradientTransform="matrix(-1 0 0 1 16.0449 0)">
				<stop  offset="0.0056" style="stop-color:#FF7800"/>
				<stop  offset="1" style="stop-color:#9A2400"/>
				<a:midPointStop  offset="0.0056" style="stop-color:#FF7800"/>
				<a:midPointStop  offset="0.5" style="stop-color:#FF7800"/>
				<a:midPointStop  offset="1" style="stop-color:#9A2400"/>
			</linearGradient>
			<path i:knockout="Off" fill-rule="evenodd" clip-rule="evenodd" fill="url(#XMLID_1_)" d="M10.131,14.027v-1.569h6.394v-0.632
				c0-0.929,0.756-1.683,1.686-1.683l8.662,0.594c0.93,0,1.686,0.752,1.686,1.682v1.124h0.783v1.437H32v1.568h-2.658v1.44h-0.783
				v1.121c0,0.932-0.756,1.686-1.686,1.686l-8.662,0.592c-0.93,0-1.686-0.754-1.686-1.682v-0.633h-6.394v-1.568h6.394v-3.477H10.131
				z"/>
			<path i:knockout="Off" fill="#FFFFFF" d="M22.035,18.094h1.109v-4.745h-1.109V18.094z"/>
		</g>
		<g>
			
				<linearGradient id="XMLID_2_" gradientUnits="userSpaceOnUse" x1="-13.833" y1="10.209" x2="-13.833" y2="21.4526" gradientTransform="matrix(1 0 0 1 24.5625 0)">
				<stop  offset="0.0056" style="stop-color:#FF7800"/>
				<stop  offset="1" style="stop-color:#9A2400"/>
				<a:midPointStop  offset="0.0056" style="stop-color:#FF7800"/>
				<a:midPointStop  offset="0.5" style="stop-color:#FF7800"/>
				<a:midPointStop  offset="1" style="stop-color:#9A2400"/>
			</linearGradient>
			<path i:knockout="Off" fill-rule="evenodd" clip-rule="evenodd" fill="url(#XMLID_2_)" d="M21.459,14.093v-1.569h-6.396v-0.632
				c0-0.929-0.756-1.683-1.686-1.683l-8.662,0.594c-0.931,0-1.686,0.752-1.686,1.682v1.124H2.247v1.437H0v1.568h2.247v1.44H3.03
				v1.121c0,0.932,0.755,1.686,1.686,1.686l8.662,0.592c0.93,0,1.686-0.754,1.686-1.682v-0.633h6.396v-1.568h-6.396v-3.477H21.459z"
				/>
			<path i:knockout="Off" fill="#FFFFFF" d="M13.289,18.159h-1.11v-4.745h1.11V18.159z"/>
			<path i:knockout="Off" fill="#FFFFFF" d="M11.421,18.159h-1.109v-4.745h1.109V18.159z"/>
			<path i:knockout="Off" fill="#FFFFFF" d="M9.554,18.159h-1.11v-4.745h1.11V18.159z"/>
		</g>
		<path i:knockout="Off" fill="#FFFFFF" d="M20.279,18.138h1.109v-4.745h-1.109V18.138z"/>
		<path i:knockout="Off" fill="#FFFFFF" d="M18.42,18.138h1.109v-4.745H18.42V18.138z"/>
	</g>
</svg>
