<?xml version="1.0" encoding="utf-8"?>
<!-- Generator: Adobe Illustrator 10.0, SVG Export Plug-In . SVG Version: 3.0.0 Build 77)  -->
<!DOCTYPE svg PUBLIC "-//W3C//DTD SVG 1.0//EN"    "http://www.w3.org/TR/2001/REC-SVG-20010904/DTD/svg10.dtd" [
	<!ENTITY ns_flows "http://ns.adobe.com/Flows/1.0/">
	<!ENTITY ns_extend "http://ns.adobe.com/Extensibility/1.0/">
	<!ENTITY ns_ai "http://ns.adobe.com/AdobeIllustrator/10.0/">
	<!ENTITY ns_graphs "http://ns.adobe.com/Graphs/1.0/">
	<!ENTITY ns_vars "http://ns.adobe.com/Variables/1.0/">
	<!ENTITY ns_imrep "http://ns.adobe.com/ImageReplacement/1.0/">
	<!ENTITY ns_sfw "http://ns.adobe.com/SaveForWeb/1.0/">
	<!ENTITY ns_custom "http://ns.adobe.com/GenericCustomNamespace/1.0/">
	<!ENTITY ns_adobe_xpath "http://ns.adobe.com/XPath/1.0/">
	<!ENTITY ns_svg "http://www.w3.org/2000/svg">
	<!ENTITY ns_xlink "http://www.w3.org/1999/xlink">
]>
<svg 
	 xmlns:x="&ns_extend;" xmlns:i="&ns_ai;" xmlns:graph="&ns_graphs;" i:viewOrigin="0 32" i:rulerOrigin="0 0" i:pageBounds="0 32 32 0"
	 xmlns="&ns_svg;" xmlns:xlink="&ns_xlink;" xmlns:a="http://ns.adobe.com/AdobeSVGViewerExtensions/3.0/" width="32" height="32"
	 viewBox="0 0 32 32" overflow="visible" enable-background="new 0 0 32 32" xml:space="preserve">
	<metadata>
		<variableSets  xmlns="&ns_vars;">
			<variableSet  varSetName="binding1" locked="none">
				<variables></variables>
				<v:sampleDataSets  xmlns="&ns_custom;" xmlns:v="&ns_vars;"></v:sampleDataSets>
			</variableSet>
		</variableSets>
		<sfw  xmlns="&ns_sfw;">
			<slices></slices>
			<sliceSourceBounds  y="0" x="0" width="32" height="32" bottomLeftOrigin="true"></sliceSourceBounds>
		</sfw>
	</metadata>
	<g id="圖層_1" i:layer="yes" i:dimmedPercent="50" i:rgbTrio="#4F008000FFFF">
		<linearGradient id="XMLID_1_" gradientUnits="userSpaceOnUse" x1="14.479" y1="1.917" x2="14.479" y2="30.0845">
			<stop  offset="0.0056" style="stop-color:#FF7800"/>
			<stop  offset="1" style="stop-color:#9A2400"/>
			<a:midPointStop  offset="0.0056" style="stop-color:#FF7800"/>
			<a:midPointStop  offset="0.5" style="stop-color:#FF7800"/>
			<a:midPointStop  offset="1" style="stop-color:#9A2400"/>
		</linearGradient>
		<path i:knockout="Off" fill-rule="evenodd" clip-rule="evenodd" fill="url(#XMLID_1_)" d="M4.587,30.084h19.784l2.131-22.422
			H2.458L4.587,30.084z M25.127,3.52c0,0-2.873,0-7.27,0c-0.596,0-1.036-1.603-1.661-1.603c-2.672,0-1.279,0-3.95,0
			c-0.787,0-1.382,1.603-2.118,1.603c-4.173,0-6.297,0-6.297,0c-1.518,0-2.748,1.23-2.748,2.748c2.233,0,26.792,0,26.792,0
			C27.875,4.75,26.645,3.52,25.127,3.52z"/>
		
			<linearGradient id="XMLID_2_" gradientUnits="userSpaceOnUse" x1="26.5156" y1="13.1646" x2="26.5156" y2="28.7085" gradientTransform="matrix(-1 0 0 1 39.0293 0)">
			<stop  offset="0.0056" style="stop-color:#92FF00"/>
			<stop  offset="1" style="stop-color:#53A500"/>
			<a:midPointStop  offset="0.0056" style="stop-color:#92FF00"/>
			<a:midPointStop  offset="0.5" style="stop-color:#92FF00"/>
			<a:midPointStop  offset="1" style="stop-color:#53A500"/>
		</linearGradient>
		<path i:knockout="Off" fill-rule="evenodd" clip-rule="evenodd" fill="url(#XMLID_2_)" stroke="#FFFFFF" stroke-width="0.5" d="
			M22.607,15.352c4.413,6.12-3.355,10.046-5.211,8.701c5.072-1.848,5.354-7.347,1.795-7.632c-3.558-0.284-8.553,3.68-9.49,7.755
			c0.783,0.881,3.717,4.505,3.717,4.505L1.113,28.708l0.041-15.2l4.775,5.669C9.641,12.355,19.069,11.24,22.607,15.352z"/>
		<path i:knockout="Off" fill="none" d="M32,32H0V0h32V32z"/>
	</g>
</svg>
