<?xml version="1.0" encoding="utf-8"?>
<!-- Generator: Adobe Illustrator 10.0, SVG Export Plug-In . SVG Version: 3.0.0 Build 77)  -->
<!DOCTYPE svg PUBLIC "-//W3C//DTD SVG 1.0//EN"    "http://www.w3.org/TR/2001/REC-SVG-20010904/DTD/svg10.dtd" [
	<!ENTITY ns_flows "http://ns.adobe.com/Flows/1.0/">
	<!ENTITY ns_extend "http://ns.adobe.com/Extensibility/1.0/">
	<!ENTITY ns_ai "http://ns.adobe.com/AdobeIllustrator/10.0/">
	<!ENTITY ns_graphs "http://ns.adobe.com/Graphs/1.0/">
	<!ENTITY ns_vars "http://ns.adobe.com/Variables/1.0/">
	<!ENTITY ns_imrep "http://ns.adobe.com/ImageReplacement/1.0/">
	<!ENTITY ns_sfw "http://ns.adobe.com/SaveForWeb/1.0/">
	<!ENTITY ns_custom "http://ns.adobe.com/GenericCustomNamespace/1.0/">
	<!ENTITY ns_adobe_xpath "http://ns.adobe.com/XPath/1.0/">
	<!ENTITY ns_svg "http://www.w3.org/2000/svg">
	<!ENTITY ns_xlink "http://www.w3.org/1999/xlink">
]>
<svg 
	 xmlns:x="&ns_extend;" xmlns:i="&ns_ai;" xmlns:graph="&ns_graphs;" i:viewOrigin="0 32" i:rulerOrigin="0 0" i:pageBounds="0 32 32 0"
	 xmlns="&ns_svg;" xmlns:xlink="&ns_xlink;" xmlns:a="http://ns.adobe.com/AdobeSVGViewerExtensions/3.0/" width="32" height="32"
	 viewBox="0 0 32 32" overflow="visible" enable-background="new 0 0 32 32" xml:space="preserve">
	<metadata>
		<variableSets  xmlns="&ns_vars;">
			<variableSet  varSetName="binding1" locked="none">
				<variables></variables>
				<v:sampleDataSets  xmlns="&ns_custom;" xmlns:v="&ns_vars;"></v:sampleDataSets>
			</variableSet>
		</variableSets>
		<sfw  xmlns="&ns_sfw;">
			<slices></slices>
			<sliceSourceBounds  y="0" x="0" width="32" height="32" bottomLeftOrigin="true"></sliceSourceBounds>
		</sfw>
	</metadata>
	<g id="圖層_1" i:layer="yes" i:dimmedPercent="50" i:rgbTrio="#4F008000FFFF">
		<path i:knockout="Off" fill="none" d="M32,32H0V0h32V32z"/>
		<linearGradient id="XMLID_1_" gradientUnits="userSpaceOnUse" x1="31.7393" y1="22.125" x2="6.004" y2="22.125">
			<stop  offset="0.0056" style="stop-color:#FF7800"/>
			<stop  offset="1" style="stop-color:#9A2400"/>
			<a:midPointStop  offset="0.0056" style="stop-color:#FF7800"/>
			<a:midPointStop  offset="0.5" style="stop-color:#FF7800"/>
			<a:midPointStop  offset="1" style="stop-color:#9A2400"/>
		</linearGradient>
		<path i:knockout="Off" fill-rule="evenodd" clip-rule="evenodd" fill="url(#XMLID_1_)" d="M29.612,27.851
			c0,0.604-0.488,1.092-1.092,1.092H10.433c-0.603,0-1.092-0.488-1.092-1.092V16.398c0-0.604,0.489-1.092,1.092-1.092h18.088
			c0.604,0,1.092,0.488,1.092,1.092V27.851z"/>
		<path i:knockout="Off" fill-rule="evenodd" clip-rule="evenodd" fill="#FFFFFF" d="M28.721,26.94c0,0.55-0.445,0.996-0.996,0.996
			H11.228c-0.549,0-0.996-0.446-0.996-0.996V16.587c0-0.549,0.446-0.996,0.996-0.996h16.497c0.551,0,0.996,0.446,0.996,0.996V26.94z
			"/>
		<linearGradient id="XMLID_2_" gradientUnits="userSpaceOnUse" x1="31.7393" y1="16.9058" x2="6.004" y2="16.9058">
			<stop  offset="0.0056" style="stop-color:#FF7800"/>
			<stop  offset="1" style="stop-color:#9A2400"/>
			<a:midPointStop  offset="0.0056" style="stop-color:#FF7800"/>
			<a:midPointStop  offset="0.5" style="stop-color:#FF7800"/>
			<a:midPointStop  offset="1" style="stop-color:#9A2400"/>
		</linearGradient>
		<path i:knockout="Off" fill-rule="evenodd" clip-rule="evenodd" fill="url(#XMLID_2_)" d="M29.612,18.505v-2.106
			c0-0.604-0.488-1.092-1.092-1.092H10.433c-0.603,0-1.092,0.488-1.092,1.092v2.106C12.597,18.505,27.628,18.505,29.612,18.505z"/>
		<linearGradient id="XMLID_3_" gradientUnits="userSpaceOnUse" x1="24.1143" y1="9.8745" x2="-1.621" y2="9.8745">
			<stop  offset="0.0056" style="stop-color:#FF7800"/>
			<stop  offset="1" style="stop-color:#9A2400"/>
			<a:midPointStop  offset="0.0056" style="stop-color:#FF7800"/>
			<a:midPointStop  offset="0.5" style="stop-color:#FF7800"/>
			<a:midPointStop  offset="1" style="stop-color:#9A2400"/>
		</linearGradient>
		<path i:knockout="Off" fill-rule="evenodd" clip-rule="evenodd" fill="url(#XMLID_3_)" d="M21.987,15.601
			c0,0.604-0.488,1.092-1.092,1.092H2.808c-0.603,0-1.092-0.488-1.092-1.092V4.148c0-0.603,0.489-1.092,1.092-1.092h18.088
			c0.604,0,1.092,0.489,1.092,1.092V15.601z"/>
		<path i:knockout="Off" fill-rule="evenodd" clip-rule="evenodd" fill="#FFFFFF" d="M21.096,14.69c0,0.55-0.445,0.997-0.996,0.997
			H3.603c-0.549,0-0.996-0.446-0.996-0.997V4.337c0-0.549,0.446-0.996,0.996-0.996H20.1c0.551,0,0.996,0.446,0.996,0.996V14.69z"/>
		<linearGradient id="XMLID_4_" gradientUnits="userSpaceOnUse" x1="24.1143" y1="4.6558" x2="-1.621" y2="4.6558">
			<stop  offset="0.0056" style="stop-color:#FF7800"/>
			<stop  offset="1" style="stop-color:#9A2400"/>
			<a:midPointStop  offset="0.0056" style="stop-color:#FF7800"/>
			<a:midPointStop  offset="0.5" style="stop-color:#FF7800"/>
			<a:midPointStop  offset="1" style="stop-color:#9A2400"/>
		</linearGradient>
		<path i:knockout="Off" fill-rule="evenodd" clip-rule="evenodd" fill="url(#XMLID_4_)" d="M21.987,6.255V4.148
			c0-0.603-0.488-1.092-1.092-1.092H2.808c-0.603,0-1.092,0.489-1.092,1.092v2.106C4.972,6.255,20.003,6.255,21.987,6.255z"/>
		<linearGradient id="XMLID_5_" gradientUnits="userSpaceOnUse" x1="31.0342" y1="10.8901" x2="21.9617" y2="10.8901">
			<stop  offset="0.0056" style="stop-color:#FF7800"/>
			<stop  offset="1" style="stop-color:#9A2400"/>
			<a:midPointStop  offset="0.0056" style="stop-color:#FF7800"/>
			<a:midPointStop  offset="0.5" style="stop-color:#FF7800"/>
			<a:midPointStop  offset="1" style="stop-color:#9A2400"/>
		</linearGradient>
		<path i:knockout="Off" fill-rule="evenodd" clip-rule="evenodd" fill="url(#XMLID_5_)" d="M30.284,8.897l-1.229-1.31l-4.301,3.781
			V8.754h-1.616v5.438h5.621v-1.576h-2.616L30.284,8.897z"/>
	</g>
</svg>
