<?xml version="1.0" encoding="utf-8"?>
<!-- Generator: Adobe Illustrator 10.0, SVG Export Plug-In . SVG Version: 3.0.0 Build 77)  -->
<!DOCTYPE svg PUBLIC "-//W3C//DTD SVG 1.0//EN"    "http://www.w3.org/TR/2001/REC-SVG-20010904/DTD/svg10.dtd" [
	<!ENTITY ns_flows "http://ns.adobe.com/Flows/1.0/">
	<!ENTITY ns_extend "http://ns.adobe.com/Extensibility/1.0/">
	<!ENTITY ns_ai "http://ns.adobe.com/AdobeIllustrator/10.0/">
	<!ENTITY ns_graphs "http://ns.adobe.com/Graphs/1.0/">
	<!ENTITY ns_vars "http://ns.adobe.com/Variables/1.0/">
	<!ENTITY ns_imrep "http://ns.adobe.com/ImageReplacement/1.0/">
	<!ENTITY ns_sfw "http://ns.adobe.com/SaveForWeb/1.0/">
	<!ENTITY ns_custom "http://ns.adobe.com/GenericCustomNamespace/1.0/">
	<!ENTITY ns_adobe_xpath "http://ns.adobe.com/XPath/1.0/">
	<!ENTITY ns_svg "http://www.w3.org/2000/svg">
	<!ENTITY ns_xlink "http://www.w3.org/1999/xlink">
]>
<svg 
	 xmlns:x="&ns_extend;" xmlns:i="&ns_ai;" xmlns:graph="&ns_graphs;" i:viewOrigin="0 32" i:rulerOrigin="0 0" i:pageBounds="0 32 32 0"
	 xmlns="&ns_svg;" xmlns:xlink="&ns_xlink;" xmlns:a="http://ns.adobe.com/AdobeSVGViewerExtensions/3.0/" width="32" height="32"
	 viewBox="0 0 32 32" overflow="visible" enable-background="new 0 0 32 32" xml:space="preserve">
	<metadata>
		<variableSets  xmlns="&ns_vars;">
			<variableSet  varSetName="binding1" locked="none">
				<variables></variables>
				<v:sampleDataSets  xmlns="&ns_custom;" xmlns:v="&ns_vars;"></v:sampleDataSets>
			</variableSet>
		</variableSets>
		<sfw  xmlns="&ns_sfw;">
			<slices></slices>
			<sliceSourceBounds  y="0" x="0" width="32" height="32" bottomLeftOrigin="true"></sliceSourceBounds>
		</sfw>
	</metadata>
	<g id="圖層_1" i:layer="yes" i:dimmedPercent="50" i:rgbTrio="#4F008000FFFF">
		<g>
			<linearGradient id="XMLID_1_" gradientUnits="userSpaceOnUse" x1="15.9995" y1="7.4175" x2="15.9995" y2="29.9174">
				<stop  offset="0.0056" style="stop-color:#FF7800"/>
				<stop  offset="1" style="stop-color:#9A2400"/>
				<a:midPointStop  offset="0.0056" style="stop-color:#FF7800"/>
				<a:midPointStop  offset="0.5" style="stop-color:#FF7800"/>
				<a:midPointStop  offset="1" style="stop-color:#9A2400"/>
			</linearGradient>
			<path i:knockout="Off" fill="url(#XMLID_1_)" d="M30.875,16.001c0,8.214-6.66,14.874-14.876,14.874
				c-8.215,0-14.875-6.66-14.875-14.874c0-8.216,6.659-14.875,14.875-14.875C24.215,1.125,30.875,7.785,30.875,16.001z"/>
			<g i:knockout="Off">
				<path i:knockout="Off" fill="#FFFFFF" d="M17.563,20.734h-3.345c-0.008-0.479-0.013-0.771-0.013-0.877
					c0-1.081,0.179-1.971,0.538-2.668c0.359-0.698,1.076-1.483,2.153-2.355c1.076-0.872,1.72-1.444,1.93-1.714
					c0.324-0.428,0.486-0.898,0.486-1.414c0-0.713-0.288-1.324-0.863-1.833c-0.574-0.509-1.349-0.764-2.322-0.764
					c-0.938,0-1.724,0.265-2.356,0.795c-0.631,0.53-1.065,1.338-1.303,2.424l-3.375-0.406c0.097-1.564,0.764-2.894,2.003-3.986
					c1.238-1.093,2.864-1.639,4.878-1.639c2.118,0,3.803,0.553,5.055,1.657c1.251,1.104,1.878,2.391,1.878,3.857
					c0,0.812-0.23,1.579-0.689,2.303c-0.46,0.725-1.442,1.709-2.947,2.957c-0.779,0.646-1.264,1.164-1.451,1.557
					C17.629,19.021,17.545,19.723,17.563,20.734z M14.218,25.703v-3.688h3.345v3.688H14.218z"/>
			</g>
		</g>
		<path i:knockout="Off" fill="none" d="M32,32H0V0h32V32z"/>
	</g>
</svg>
