<?xml version="1.0" encoding="utf-8"?>
<!-- Generator: Adobe Illustrator 10.0, SVG Export Plug-In . SVG Version: 3.0.0 Build 77)  -->
<!DOCTYPE svg PUBLIC "-//W3C//DTD SVG 1.0//EN"    "http://www.w3.org/TR/2001/REC-SVG-20010904/DTD/svg10.dtd" [
	<!ENTITY ns_flows "http://ns.adobe.com/Flows/1.0/">
	<!ENTITY ns_extend "http://ns.adobe.com/Extensibility/1.0/">
	<!ENTITY ns_ai "http://ns.adobe.com/AdobeIllustrator/10.0/">
	<!ENTITY ns_graphs "http://ns.adobe.com/Graphs/1.0/">
	<!ENTITY ns_vars "http://ns.adobe.com/Variables/1.0/">
	<!ENTITY ns_imrep "http://ns.adobe.com/ImageReplacement/1.0/">
	<!ENTITY ns_sfw "http://ns.adobe.com/SaveForWeb/1.0/">
	<!ENTITY ns_custom "http://ns.adobe.com/GenericCustomNamespace/1.0/">
	<!ENTITY ns_adobe_xpath "http://ns.adobe.com/XPath/1.0/">
	<!ENTITY ns_svg "http://www.w3.org/2000/svg">
	<!ENTITY ns_xlink "http://www.w3.org/1999/xlink">
]>
<svg 
	 xmlns:x="&ns_extend;" xmlns:i="&ns_ai;" xmlns:graph="&ns_graphs;" i:viewOrigin="0 32" i:rulerOrigin="0 0" i:pageBounds="0 32 32 0"
	 xmlns="&ns_svg;" xmlns:xlink="&ns_xlink;" xmlns:a="http://ns.adobe.com/AdobeSVGViewerExtensions/3.0/" width="32" height="32"
	 viewBox="0 0 32 32" overflow="visible" enable-background="new 0 0 32 32" xml:space="preserve">
	<metadata>
		<variableSets  xmlns="&ns_vars;">
			<variableSet  varSetName="binding1" locked="none">
				<variables></variables>
				<v:sampleDataSets  xmlns="&ns_custom;" xmlns:v="&ns_vars;"></v:sampleDataSets>
			</variableSet>
		</variableSets>
		<sfw  xmlns="&ns_sfw;">
			<slices></slices>
			<sliceSourceBounds  y="0" x="0" width="32" height="32" bottomLeftOrigin="true"></sliceSourceBounds>
		</sfw>
	</metadata>
	<g id="圖層_1" i:layer="yes" i:dimmedPercent="50" i:rgbTrio="#4F008000FFFF">
		<g>
			<path i:knockout="Off" fill="none" d="M32,32H0V0h32V32z"/>
			<g>
				<linearGradient id="XMLID_1_" gradientUnits="userSpaceOnUse" x1="20.4375" y1="10.1934" x2="20.4375" y2="26.6353">
					<stop  offset="0.0056" style="stop-color:#FF7800"/>
					<stop  offset="1" style="stop-color:#9A2400"/>
					<a:midPointStop  offset="0.0056" style="stop-color:#FF7800"/>
					<a:midPointStop  offset="0.5" style="stop-color:#FF7800"/>
					<a:midPointStop  offset="1" style="stop-color:#9A2400"/>
				</linearGradient>
				<path i:knockout="Off" fill-rule="evenodd" clip-rule="evenodd" fill="url(#XMLID_1_)" d="M9.938,15.582h3.832l5.187,6.959
					l9.07-12.348h2.908l-9.938,16.441h-3.533L9.938,15.582z"/>
				<g i:knockout="Off">
					<linearGradient id="XMLID_2_" gradientUnits="userSpaceOnUse" x1="5.0884" y1="5.5195" x2="5.0884" y2="14.1128">
						<stop  offset="0.0056" style="stop-color:#FF7800"/>
						<stop  offset="1" style="stop-color:#9A2400"/>
						<a:midPointStop  offset="0.0056" style="stop-color:#FF7800"/>
						<a:midPointStop  offset="0.5" style="stop-color:#FF7800"/>
						<a:midPointStop  offset="1" style="stop-color:#9A2400"/>
					</linearGradient>
					<path i:knockout="Off" fill="url(#XMLID_2_)" d="M1.064,14.113L4.351,5.52h1.247l3.515,8.593H7.818L6.83,11.503H3.211
						l-0.94,2.609H1.064z M3.532,10.582H6.47L5.568,8.204C5.298,7.479,5.093,6.882,4.951,6.41C4.833,6.969,4.675,7.52,4.475,8.063
						L3.532,10.582z"/>
					<linearGradient id="XMLID_3_" gradientUnits="userSpaceOnUse" x1="13.2007" y1="5.5195" x2="13.2007" y2="14.1128">
						<stop  offset="0.0056" style="stop-color:#FF7800"/>
						<stop  offset="1" style="stop-color:#9A2400"/>
						<a:midPointStop  offset="0.0056" style="stop-color:#FF7800"/>
						<a:midPointStop  offset="0.5" style="stop-color:#FF7800"/>
						<a:midPointStop  offset="1" style="stop-color:#9A2400"/>
					</linearGradient>
					<path i:knockout="Off" fill="url(#XMLID_3_)" d="M9.958,14.113V5.52h3.219c0.655,0,1.181,0.087,1.577,0.261
						c0.396,0.174,0.706,0.441,0.93,0.802c0.225,0.361,0.337,0.738,0.337,1.133c0,0.367-0.101,0.712-0.3,1.036
						c-0.201,0.324-0.503,0.585-0.906,0.784c0.522,0.153,0.925,0.413,1.206,0.781c0.281,0.367,0.422,0.802,0.422,1.302
						c0,0.404-0.085,0.777-0.255,1.125c-0.17,0.346-0.38,0.613-0.63,0.801s-0.563,0.33-0.94,0.426s-0.838,0.143-1.385,0.143H9.958z
						 M11.099,9.129h1.849c0.502,0,0.861-0.033,1.079-0.1c0.288-0.086,0.505-0.228,0.65-0.427s0.219-0.449,0.219-0.75
						c0-0.285-0.068-0.535-0.204-0.752c-0.137-0.217-0.33-0.365-0.583-0.445s-0.687-0.12-1.301-0.12h-1.709V9.129z M11.099,13.097
						h2.139c0.367,0,0.625-0.014,0.773-0.041c0.262-0.047,0.48-0.125,0.656-0.234s0.32-0.268,0.434-0.477s0.17-0.451,0.17-0.725
						c0-0.32-0.085-0.598-0.255-0.834s-0.399-0.403-0.688-0.499c-0.29-0.096-0.707-0.144-1.251-0.144h-1.978V13.097z"/>
					<linearGradient id="XMLID_4_" gradientUnits="userSpaceOnUse" x1="21.4844" y1="5.3633" x2="21.4844" y2="14.2534">
						<stop  offset="0.0056" style="stop-color:#FF7800"/>
						<stop  offset="1" style="stop-color:#9A2400"/>
						<a:midPointStop  offset="0.0056" style="stop-color:#FF7800"/>
						<a:midPointStop  offset="0.5" style="stop-color:#FF7800"/>
						<a:midPointStop  offset="1" style="stop-color:#9A2400"/>
					</linearGradient>
					<path i:knockout="Off" fill="url(#XMLID_4_)" d="M24.148,11.095l1.141,0.287c-0.238,0.934-0.668,1.646-1.289,2.137
						c-0.619,0.49-1.379,0.734-2.273,0.734c-0.928,0-1.684-0.188-2.264-0.564c-0.582-0.379-1.023-0.924-1.328-1.641
						c-0.303-0.715-0.455-1.482-0.455-2.304c0-0.896,0.172-1.676,0.516-2.343c0.342-0.666,0.83-1.173,1.463-1.519
						c0.633-0.347,1.328-0.52,2.088-0.52c0.863,0,1.588,0.219,2.174,0.656c0.588,0.438,0.998,1.053,1.229,1.846l-1.125,0.264
						c-0.199-0.626-0.49-1.082-0.869-1.368c-0.381-0.285-0.857-0.429-1.434-0.429c-0.662,0-1.217,0.159-1.66,0.476
						c-0.445,0.317-0.758,0.743-0.938,1.277c-0.182,0.535-0.271,1.086-0.271,1.653c0,0.732,0.107,1.371,0.32,1.917
						s0.545,0.955,0.996,1.225c0.449,0.27,0.938,0.404,1.461,0.404c0.639,0,1.18-0.184,1.621-0.551
						C23.693,12.365,23.992,11.82,24.148,11.095z"/>
				</g>
			</g>
		</g>
	</g>
</svg>
