<?xml version="1.0" encoding="utf-8"?>
<!-- Generator: Adobe Illustrator 10.0, SVG Export Plug-In . SVG Version: 3.0.0 Build 77)  -->
<!DOCTYPE svg PUBLIC "-//W3C//DTD SVG 1.0//EN"    "http://www.w3.org/TR/2001/REC-SVG-20010904/DTD/svg10.dtd" [
	<!ENTITY ns_flows "http://ns.adobe.com/Flows/1.0/">
	<!ENTITY ns_extend "http://ns.adobe.com/Extensibility/1.0/">
	<!ENTITY ns_ai "http://ns.adobe.com/AdobeIllustrator/10.0/">
	<!ENTITY ns_graphs "http://ns.adobe.com/Graphs/1.0/">
	<!ENTITY ns_vars "http://ns.adobe.com/Variables/1.0/">
	<!ENTITY ns_imrep "http://ns.adobe.com/ImageReplacement/1.0/">
	<!ENTITY ns_sfw "http://ns.adobe.com/SaveForWeb/1.0/">
	<!ENTITY ns_custom "http://ns.adobe.com/GenericCustomNamespace/1.0/">
	<!ENTITY ns_adobe_xpath "http://ns.adobe.com/XPath/1.0/">
	<!ENTITY ns_svg "http://www.w3.org/2000/svg">
	<!ENTITY ns_xlink "http://www.w3.org/1999/xlink">
]>
<svg 
	 xmlns:x="&ns_extend;" xmlns:i="&ns_ai;" xmlns:graph="&ns_graphs;" i:viewOrigin="0 32" i:rulerOrigin="0 0" i:pageBounds="0 32 32 0"
	 xmlns="&ns_svg;" xmlns:xlink="&ns_xlink;" xmlns:a="http://ns.adobe.com/AdobeSVGViewerExtensions/3.0/" width="32" height="32"
	 viewBox="0 0 32 32" overflow="visible" enable-background="new 0 0 32 32" xml:space="preserve">
	<metadata>
		<variableSets  xmlns="&ns_vars;">
			<variableSet  varSetName="binding1" locked="none">
				<variables></variables>
				<v:sampleDataSets  xmlns="&ns_custom;" xmlns:v="&ns_vars;"></v:sampleDataSets>
			</variableSet>
		</variableSets>
		<sfw  xmlns="&ns_sfw;">
			<slices></slices>
			<sliceSourceBounds  y="0" x="0" width="32" height="32" bottomLeftOrigin="true"></sliceSourceBounds>
		</sfw>
	</metadata>
	<g id="圖層_1" i:layer="yes" i:dimmedPercent="50" i:rgbTrio="#4F008000FFFF">
		<g>
			<path i:knockout="Off" fill="none" d="M32,32H0V0h32V32z"/>
			<g>
				<g i:knockout="Off">
					<g>
						
							<linearGradient id="XMLID_1_" gradientUnits="userSpaceOnUse" x1="14.8032" y1="1.1768" x2="14.8032" y2="25.9458" gradientTransform="matrix(1 0 0 1 -0.2383 -0.1563)">
							<stop  offset="0.0056" style="stop-color:#FF7800"/>
							<stop  offset="1" style="stop-color:#9A2400"/>
							<a:midPointStop  offset="0.0056" style="stop-color:#FF7800"/>
							<a:midPointStop  offset="0.5" style="stop-color:#FF7800"/>
							<a:midPointStop  offset="1" style="stop-color:#9A2400"/>
						</linearGradient>
						<path i:knockout="Off" fill-rule="evenodd" clip-rule="evenodd" fill="url(#XMLID_1_)" d="M22.934,1.021H6.197
							c-1.529,0-2.768,1.239-2.768,2.768v19.233c0,1.528,1.239,2.768,2.768,2.768h16.736c1.529,0,2.767-1.239,2.767-2.768V3.788
							C25.7,2.259,24.463,1.021,22.934,1.021z"/>
					</g>
				</g>
				<linearGradient id="XMLID_2_" gradientUnits="userSpaceOnUse" x1="14.5649" y1="10.4639" x2="14.5649" y2="34.6561">
					<stop  offset="0" style="stop-color:#FFFFFF"/>
					<stop  offset="1" style="stop-color:#ABABAB"/>
					<stop  offset="1" style="stop-color:#000000"/>
					<a:midPointStop  offset="0" style="stop-color:#FFFFFF"/>
					<a:midPointStop  offset="0.5" style="stop-color:#FFFFFF"/>
					<a:midPointStop  offset="1" style="stop-color:#ABABAB"/>
					<a:midPointStop  offset="0.5" style="stop-color:#ABABAB"/>
					<a:midPointStop  offset="1" style="stop-color:#000000"/>
				</linearGradient>
				<path i:knockout="Off" fill-rule="evenodd" clip-rule="evenodd" fill="url(#XMLID_2_)" d="M22.818,22.534H6.312V4.276h16.507
					V22.534z"/>
				<linearGradient id="XMLID_3_" gradientUnits="userSpaceOnUse" x1="7.6484" y1="8.0918" x2="21.4609" y2="8.0918">
					<stop  offset="0" style="stop-color:#696969"/>
					<stop  offset="1" style="stop-color:#C4C4C4"/>
					<a:midPointStop  offset="0" style="stop-color:#696969"/>
					<a:midPointStop  offset="0.5" style="stop-color:#696969"/>
					<a:midPointStop  offset="1" style="stop-color:#C4C4C4"/>
				</linearGradient>
				<path i:knockout="Off" fill-rule="evenodd" clip-rule="evenodd" fill="url(#XMLID_3_)" d="M21.461,9.342H7.648v-2.5h13.813
					V9.342z"/>
				<linearGradient id="XMLID_4_" gradientUnits="userSpaceOnUse" x1="7.6484" y1="12.8418" x2="21.4609" y2="12.8418">
					<stop  offset="0" style="stop-color:#696969"/>
					<stop  offset="1" style="stop-color:#C4C4C4"/>
					<a:midPointStop  offset="0" style="stop-color:#696969"/>
					<a:midPointStop  offset="0.5" style="stop-color:#696969"/>
					<a:midPointStop  offset="1" style="stop-color:#C4C4C4"/>
				</linearGradient>
				<path i:knockout="Off" fill-rule="evenodd" clip-rule="evenodd" fill="url(#XMLID_4_)" d="M21.461,14.092H7.648v-2.5h13.813
					V14.092z"/>
				<linearGradient id="XMLID_5_" gradientUnits="userSpaceOnUse" x1="7.6484" y1="17.5918" x2="21.4609" y2="17.5918">
					<stop  offset="0" style="stop-color:#696969"/>
					<stop  offset="1" style="stop-color:#C4C4C4"/>
					<a:midPointStop  offset="0" style="stop-color:#696969"/>
					<a:midPointStop  offset="0.5" style="stop-color:#696969"/>
					<a:midPointStop  offset="1" style="stop-color:#C4C4C4"/>
				</linearGradient>
				<path i:knockout="Off" fill-rule="evenodd" clip-rule="evenodd" fill="url(#XMLID_5_)" d="M21.461,18.842H7.648v-2.5h13.813
					V18.842z"/>
				<linearGradient id="XMLID_6_" gradientUnits="userSpaceOnUse" x1="21.8672" y1="17.4834" x2="21.8672" y2="30.0111">
					<stop  offset="0.0056" style="stop-color:#FF7800"/>
					<stop  offset="1" style="stop-color:#9A2400"/>
					<a:midPointStop  offset="0.0056" style="stop-color:#FF7800"/>
					<a:midPointStop  offset="0.5" style="stop-color:#FF7800"/>
					<a:midPointStop  offset="1" style="stop-color:#9A2400"/>
				</linearGradient>
				<path i:knockout="Off" fill-rule="evenodd" clip-rule="evenodd" fill="url(#XMLID_6_)" d="M28.565,24.342V18.48
					c0-0.78-0.638-1.414-1.418-1.414s-1.416,0.634-1.416,1.414v3.053h-0.693V18.48c0-0.78-0.634-1.414-1.414-1.414
					c-0.779,0-1.411,0.634-1.411,1.414v3.053h-0.698V18.48c0-0.78-0.632-1.414-1.408-1.414c-0.785,0-1.417,0.634-1.417,1.414v3.053
					h-0.697v-9.515c0-0.78-0.634-1.416-1.41-1.416c-0.781,0-1.418,0.636-1.418,1.416v12.522c0,0.054,0.014,0.103,0.017,0.157v3.267
					c0,1.664,0.993,3.015,2.216,3.015h8.96c1.223,0,2.214-1.351,2.214-3.015v-3.417C28.57,24.48,28.565,24.409,28.565,24.342z"/>
			</g>
		</g>
	</g>
</svg>
