<?xml version="1.0" encoding="utf-8"?>
<!-- Generator: Adobe Illustrator 10.0, SVG Export Plug-In . SVG Version: 3.0.0 Build 77)  -->
<!DOCTYPE svg PUBLIC "-//W3C//DTD SVG 1.0//EN"    "http://www.w3.org/TR/2001/REC-SVG-20010904/DTD/svg10.dtd" [
	<!ENTITY ns_flows "http://ns.adobe.com/Flows/1.0/">
	<!ENTITY ns_extend "http://ns.adobe.com/Extensibility/1.0/">
	<!ENTITY ns_ai "http://ns.adobe.com/AdobeIllustrator/10.0/">
	<!ENTITY ns_graphs "http://ns.adobe.com/Graphs/1.0/">
	<!ENTITY ns_vars "http://ns.adobe.com/Variables/1.0/">
	<!ENTITY ns_imrep "http://ns.adobe.com/ImageReplacement/1.0/">
	<!ENTITY ns_sfw "http://ns.adobe.com/SaveForWeb/1.0/">
	<!ENTITY ns_custom "http://ns.adobe.com/GenericCustomNamespace/1.0/">
	<!ENTITY ns_adobe_xpath "http://ns.adobe.com/XPath/1.0/">
	<!ENTITY ns_svg "http://www.w3.org/2000/svg">
	<!ENTITY ns_xlink "http://www.w3.org/1999/xlink">
]>
<svg 
	 xmlns:x="&ns_extend;" xmlns:i="&ns_ai;" xmlns:graph="&ns_graphs;" i:viewOrigin="4.882813e-004 32" i:rulerOrigin="0 0" i:pageBounds="0 32 32 0"
	 xmlns="&ns_svg;" xmlns:xlink="&ns_xlink;" xmlns:a="http://ns.adobe.com/AdobeSVGViewerExtensions/3.0/" width="32" height="32"
	 viewBox="0 0 32 32" overflow="visible" enable-background="new 0 0 32 32" xml:space="preserve">
	<metadata>
		<variableSets  xmlns="&ns_vars;">
			<variableSet  varSetName="binding1" locked="none">
				<variables></variables>
				<v:sampleDataSets  xmlns="&ns_custom;" xmlns:v="&ns_vars;"></v:sampleDataSets>
			</variableSet>
		</variableSets>
		<sfw  xmlns="&ns_sfw;">
			<slices></slices>
			<sliceSourceBounds  y="0" x="0" width="32" height="32" bottomLeftOrigin="true"></sliceSourceBounds>
		</sfw>
	</metadata>
	<g id="_x00B9_柉x00BC_h_x005F_1" i:layer="yes" i:dimmedPercent="50" i:rgbTrio="#4F008000FFFF">
		<path i:knockout="Off" fill="none" d="M32,32H0V0h32V32z"/>
		<linearGradient id="XMLID_1_" gradientUnits="userSpaceOnUse" x1="15.9995" y1="0.874" x2="15.9995" y2="31.1255">
			<stop  offset="0.0056" style="stop-color:#FF7800"/>
			<stop  offset="1" style="stop-color:#9A2400"/>
			<a:midPointStop  offset="0.0056" style="stop-color:#FF7800"/>
			<a:midPointStop  offset="0.5" style="stop-color:#FF7800"/>
			<a:midPointStop  offset="1" style="stop-color:#9A2400"/>
		</linearGradient>
		<path i:knockout="Off" fill-rule="evenodd" clip-rule="evenodd" fill="url(#XMLID_1_)" d="M16.002,0.874
			C7.649,0.874,0.874,7.647,0.874,16c0,8.35,6.775,15.125,15.128,15.125c8.352,0,15.124-6.775,15.124-15.125
			C31.125,7.647,24.354,0.874,16.002,0.874z"/>
		<g i:knockout="Off">
			<path i:knockout="Off" fill="#FFFFFF" d="M3.023,16.008c0-1.87,0.522-3.325,1.567-4.367c1.045-1.042,2.5-1.563,4.366-1.563
				c1.912,0,3.386,0.512,4.42,1.535s1.552,2.457,1.552,4.301c0,1.338-0.226,2.436-0.678,3.293c-0.452,0.855-1.105,1.523-1.959,2
				s-1.919,0.715-3.194,0.715c-1.296,0-2.369-0.207-3.218-0.617c-0.849-0.412-1.538-1.063-2.065-1.953S3.023,17.346,3.023,16.008z
				 M6.555,16.023c0,1.152,0.217,1.982,0.652,2.486s1.026,0.756,1.774,0.756c0.769,0,1.364-0.248,1.786-0.74
				c0.421-0.494,0.632-1.381,0.632-2.658c0-1.075-0.22-1.861-0.66-2.357s-1.037-0.745-1.79-0.745c-0.722,0-1.301,0.252-1.738,0.756
				C6.773,14.026,6.555,14.86,6.555,16.023z"/>
			<path i:knockout="Off" fill="#FFFFFF" d="M16.82,10.266h3.531V14.6l3.729-4.334h4.709l-4.205,4.316l4.393,7.153h-4.361
				l-2.422-4.699l-1.842,1.889v2.811H16.82V10.266z"/>
		</g>
	</g>
</svg>
