<?xml version="1.0" encoding="utf-8"?>
<!-- Generator: Adobe Illustrator 10.0, SVG Export Plug-In . SVG Version: 3.0.0 Build 77)  -->
<!DOCTYPE svg PUBLIC "-//W3C//DTD SVG 1.0//EN"    "http://www.w3.org/TR/2001/REC-SVG-20010904/DTD/svg10.dtd" [
	<!ENTITY ns_flows "http://ns.adobe.com/Flows/1.0/">
	<!ENTITY ns_extend "http://ns.adobe.com/Extensibility/1.0/">
	<!ENTITY ns_ai "http://ns.adobe.com/AdobeIllustrator/10.0/">
	<!ENTITY ns_graphs "http://ns.adobe.com/Graphs/1.0/">
	<!ENTITY ns_vars "http://ns.adobe.com/Variables/1.0/">
	<!ENTITY ns_imrep "http://ns.adobe.com/ImageReplacement/1.0/">
	<!ENTITY ns_sfw "http://ns.adobe.com/SaveForWeb/1.0/">
	<!ENTITY ns_custom "http://ns.adobe.com/GenericCustomNamespace/1.0/">
	<!ENTITY ns_adobe_xpath "http://ns.adobe.com/XPath/1.0/">
	<!ENTITY ns_svg "http://www.w3.org/2000/svg">
	<!ENTITY ns_xlink "http://www.w3.org/1999/xlink">
]>
<svg 
	 xmlns:x="&ns_extend;" xmlns:i="&ns_ai;" xmlns:graph="&ns_graphs;" i:viewOrigin="0 32" i:rulerOrigin="0 0" i:pageBounds="0 32 32 0"
	 xmlns="&ns_svg;" xmlns:xlink="&ns_xlink;" xmlns:a="http://ns.adobe.com/AdobeSVGViewerExtensions/3.0/" width="32" height="32"
	 viewBox="0 0 32 32" overflow="visible" enable-background="new 0 0 32 32" xml:space="preserve">
	<metadata>
		<variableSets  xmlns="&ns_vars;">
			<variableSet  varSetName="binding1" locked="none">
				<variables></variables>
				<v:sampleDataSets  xmlns="&ns_custom;" xmlns:v="&ns_vars;"></v:sampleDataSets>
			</variableSet>
		</variableSets>
		<sfw  xmlns="&ns_sfw;">
			<slices></slices>
			<sliceSourceBounds  y="0" x="0" width="32" height="32" bottomLeftOrigin="true"></sliceSourceBounds>
		</sfw>
	</metadata>
	<g id="圖層_1" i:layer="yes" i:dimmedPercent="50" i:rgbTrio="#4F008000FFFF">
		<path i:knockout="Off" fill="none" d="M32,32H0V0h32V32z"/>
		<linearGradient id="XMLID_1_" gradientUnits="userSpaceOnUse" x1="8.4312" y1="4.437" x2="24.057" y2="28.3133">
			<stop  offset="0" style="stop-color:#FFFFFF"/>
			<stop  offset="0.5449" style="stop-color:#A3A3A3"/>
			<stop  offset="1" style="stop-color:#F9F9F9"/>
			<a:midPointStop  offset="0" style="stop-color:#FFFFFF"/>
			<a:midPointStop  offset="0.5" style="stop-color:#FFFFFF"/>
			<a:midPointStop  offset="0.5449" style="stop-color:#A3A3A3"/>
			<a:midPointStop  offset="0.5" style="stop-color:#A3A3A3"/>
			<a:midPointStop  offset="1" style="stop-color:#F9F9F9"/>
		</linearGradient>
		<path i:knockout="Off" fill-rule="evenodd" clip-rule="evenodd" fill="url(#XMLID_1_)" stroke="#9A2400" stroke-width="0.25" d="
			M25.817,28.02c0,0.543-0.439,0.984-0.983,0.984H7.166c-0.543,0-0.984-0.441-0.984-0.984V3.981c0-0.543,0.441-0.984,0.984-0.984
			h17.668c0.544,0,0.983,0.441,0.983,0.984V28.02z"/>
		<linearGradient id="XMLID_2_" gradientUnits="userSpaceOnUse" x1="7.166" y1="2.9971" x2="7.166" y2="2.9971">
			<stop  offset="0.0056" style="stop-color:#FF7800"/>
			<stop  offset="1" style="stop-color:#9A2400"/>
			<a:midPointStop  offset="0.0056" style="stop-color:#FF7800"/>
			<a:midPointStop  offset="0.5" style="stop-color:#FF7800"/>
			<a:midPointStop  offset="1" style="stop-color:#9A2400"/>
		</linearGradient>
		<path i:knockout="Off" fill-rule="evenodd" clip-rule="evenodd" fill="url(#XMLID_2_)" d="M7.166,2.997"/>
		<path i:knockout="Off" opacity="0.5" d="M16.5,9.447c-4.308,0-7.801,3.493-7.801,7.803c0,4.307,3.493,7.801,7.801,7.801
			c4.309,0,7.801-3.494,7.801-7.801C24.301,12.94,20.809,9.447,16.5,9.447z M16.5,19.199c-1.077,0-1.95-0.873-1.95-1.949
			c0-1.079,0.873-1.952,1.95-1.952c1.078,0,1.95,0.873,1.95,1.952C18.45,18.326,17.578,19.199,16.5,19.199z"/>
		<linearGradient id="XMLID_3_" gradientUnits="userSpaceOnUse" x1="25.0508" y1="27.4033" x2="6.8015" y2="27.6533">
			<stop  offset="0.0056" style="stop-color:#A52D00"/>
			<stop  offset="0.4326" style="stop-color:#FF7800"/>
			<stop  offset="1" style="stop-color:#9A2400"/>
			<a:midPointStop  offset="0.0056" style="stop-color:#A52D00"/>
			<a:midPointStop  offset="0.5" style="stop-color:#A52D00"/>
			<a:midPointStop  offset="0.4326" style="stop-color:#FF7800"/>
			<a:midPointStop  offset="0.5" style="stop-color:#FF7800"/>
			<a:midPointStop  offset="1" style="stop-color:#9A2400"/>
		</linearGradient>
		<path i:knockout="Off" fill-rule="evenodd" clip-rule="evenodd" fill="url(#XMLID_3_)" stroke="#9A2400" stroke-width="0.25" d="
			M25.817,26.066v1.953c0,0.543-0.439,0.984-0.983,0.984H7.166c-0.543,0-0.984-0.441-0.984-0.984v-1.953
			C7.877,26.066,23.57,26.066,25.817,26.066z"/>
		<linearGradient id="XMLID_4_" gradientUnits="userSpaceOnUse" x1="15.9995" y1="12.2954" x2="15.9995" y2="23.9704">
			<stop  offset="0.0056" style="stop-color:#FF7800"/>
			<stop  offset="1" style="stop-color:#9A2400"/>
			<a:midPointStop  offset="0.0056" style="stop-color:#FF7800"/>
			<a:midPointStop  offset="0.5" style="stop-color:#FF7800"/>
			<a:midPointStop  offset="1" style="stop-color:#9A2400"/>
		</linearGradient>
		<path i:knockout="Off" fill="url(#XMLID_4_)" stroke="#BF6700" stroke-width="0.4507" d="M16,9.03
			c-4.262,0-7.718,3.456-7.718,7.719c0,4.262,3.456,7.717,7.718,7.717c4.263,0,7.718-3.455,7.718-7.717
			C23.718,12.486,20.263,9.03,16,9.03z M16,18.678c-1.065,0-1.93-0.863-1.93-1.929c0-1.065,0.864-1.93,1.93-1.93
			c1.066,0,1.93,0.864,1.93,1.93C17.93,17.814,17.066,18.678,16,18.678z"/>
		<path i:knockout="Off" opacity="0.4" fill="#FFFFFF" d="M16,13.217c-1.95,0-3.531,1.582-3.531,3.532
			c0,1.951,1.581,3.533,3.531,3.533c1.951,0,3.531-1.582,3.531-3.533C19.531,14.798,17.951,13.217,16,13.217z M16,18.678
			c-1.065,0-1.93-0.863-1.93-1.929c0-1.065,0.864-1.93,1.93-1.93c1.066,0,1.93,0.864,1.93,1.93
			C17.93,17.814,17.066,18.678,16,18.678z"/>
		<path i:knockout="Off" opacity="0.35" fill-rule="evenodd" clip-rule="evenodd" d="M21.453,5.298c-1.447,0-2.62,1.173-2.62,2.62
			c0,0.492,0.144,0.946,0.38,1.339l-2.549,2.548v1.042h0.648l0.338-0.789l2.665-1.791c0.345,0.167,0.728,0.27,1.138,0.27
			c1.446,0,2.619-1.173,2.619-2.62S22.899,5.298,21.453,5.298z"/>
		<radialGradient id="XMLID_5_" cx="20.3857" cy="7.1714" r="4.0565" fx="20.3857" fy="7.1714" gradientUnits="userSpaceOnUse">
			<stop  offset="0.0056" style="stop-color:#FF7800"/>
			<stop  offset="1" style="stop-color:#9A2400"/>
			<a:midPointStop  offset="0.0056" style="stop-color:#FF7800"/>
			<a:midPointStop  offset="0.5" style="stop-color:#FF7800"/>
			<a:midPointStop  offset="1" style="stop-color:#9A2400"/>
		</radialGradient>
		<path i:knockout="Off" fill-rule="evenodd" clip-rule="evenodd" fill="url(#XMLID_5_)" d="M21.146,4.974
			c-1.447,0-2.62,1.173-2.62,2.62c0,0.492,0.144,0.946,0.38,1.339l-2.549,2.548v1.042h0.648l0.338-0.789l2.665-1.791
			c0.345,0.167,0.728,0.27,1.138,0.27c1.446,0,2.619-1.173,2.619-2.62S22.593,4.974,21.146,4.974z"/>
		
			<path i:knockout="Off" opacity="0.35" fill-rule="evenodd" clip-rule="evenodd" fill="#FFFFFF" stroke="#000000" stroke-width="0.25" d="
			M24.836,24.406c0,0.49-0.396,0.885-0.886,0.885H8.05c-0.489,0-0.886-0.395-0.886-0.885V5.056c0-0.489,0.396-0.886,0.886-0.886
			h15.9c0.49,0,0.886,0.397,0.886,0.886V24.406z"/>
		<g>
			<g>
				<radialGradient id="XMLID_6_" cx="7.2368" cy="3.7998" r="1.2136" fx="7.2368" fy="3.7998" gradientUnits="userSpaceOnUse">
					<stop  offset="0.2528" style="stop-color:#E0E0E0"/>
					<stop  offset="1" style="stop-color:#A3A3A3"/>
					<a:midPointStop  offset="0.2528" style="stop-color:#E0E0E0"/>
					<a:midPointStop  offset="0.5" style="stop-color:#E0E0E0"/>
					<a:midPointStop  offset="1" style="stop-color:#A3A3A3"/>
				</radialGradient>
				
					<path i:knockout="Off" fill-rule="evenodd" clip-rule="evenodd" fill="url(#XMLID_6_)" stroke="#9C9C9C" stroke-width="0.25" d="
					M8.133,4.174c0,0.391-0.317,0.708-0.709,0.708c-0.391,0-0.708-0.317-0.708-0.708s0.317-0.708,0.708-0.708
					C7.815,3.466,8.133,3.783,8.133,4.174z"/>
				<radialGradient id="XMLID_7_" cx="7.2368" cy="24.4258" r="1.2129" fx="7.2368" fy="24.4258" gradientUnits="userSpaceOnUse">
					<stop  offset="0.2528" style="stop-color:#E0E0E0"/>
					<stop  offset="1" style="stop-color:#A3A3A3"/>
					<a:midPointStop  offset="0.2528" style="stop-color:#E0E0E0"/>
					<a:midPointStop  offset="0.5" style="stop-color:#E0E0E0"/>
					<a:midPointStop  offset="1" style="stop-color:#A3A3A3"/>
				</radialGradient>
				
					<path i:knockout="Off" fill-rule="evenodd" clip-rule="evenodd" fill="url(#XMLID_7_)" stroke="#9C9C9C" stroke-width="0.25" d="
					M8.133,24.801c0,0.391-0.317,0.707-0.709,0.707c-0.391,0-0.708-0.316-0.708-0.707c0-0.393,0.317-0.709,0.708-0.709
					C7.815,24.092,8.133,24.408,8.133,24.801z"/>
				<radialGradient id="XMLID_8_" cx="7.2368" cy="14.1118" r="1.2136" fx="7.2368" fy="14.1118" gradientUnits="userSpaceOnUse">
					<stop  offset="0.2528" style="stop-color:#E0E0E0"/>
					<stop  offset="1" style="stop-color:#A3A3A3"/>
					<a:midPointStop  offset="0.2528" style="stop-color:#E0E0E0"/>
					<a:midPointStop  offset="0.5" style="stop-color:#E0E0E0"/>
					<a:midPointStop  offset="1" style="stop-color:#A3A3A3"/>
				</radialGradient>
				
					<path i:knockout="Off" fill-rule="evenodd" clip-rule="evenodd" fill="url(#XMLID_8_)" stroke="#9C9C9C" stroke-width="0.25" d="
					M8.133,14.487c0,0.391-0.317,0.708-0.709,0.708c-0.391,0-0.708-0.316-0.708-0.708c0-0.392,0.317-0.709,0.708-0.709
					C7.815,13.778,8.133,14.096,8.133,14.487z"/>
			</g>
			<g>
				<radialGradient id="XMLID_9_" cx="24.4863" cy="3.7998" r="1.2138" fx="24.4863" fy="3.7998" gradientUnits="userSpaceOnUse">
					<stop  offset="0.2528" style="stop-color:#E0E0E0"/>
					<stop  offset="1" style="stop-color:#A3A3A3"/>
					<a:midPointStop  offset="0.2528" style="stop-color:#E0E0E0"/>
					<a:midPointStop  offset="0.5" style="stop-color:#E0E0E0"/>
					<a:midPointStop  offset="1" style="stop-color:#A3A3A3"/>
				</radialGradient>
				
					<path i:knockout="Off" fill-rule="evenodd" clip-rule="evenodd" fill="url(#XMLID_9_)" stroke="#9C9C9C" stroke-width="0.25" d="
					M25.383,4.174c0,0.391-0.318,0.708-0.709,0.708s-0.709-0.317-0.709-0.708s0.318-0.708,0.709-0.708S25.383,3.783,25.383,4.174z"
					/>
				
					<radialGradient id="XMLID_10_" cx="24.4863" cy="24.4258" r="1.2132" fx="24.4863" fy="24.4258" gradientUnits="userSpaceOnUse">
					<stop  offset="0.2528" style="stop-color:#E0E0E0"/>
					<stop  offset="1" style="stop-color:#A3A3A3"/>
					<a:midPointStop  offset="0.2528" style="stop-color:#E0E0E0"/>
					<a:midPointStop  offset="0.5" style="stop-color:#E0E0E0"/>
					<a:midPointStop  offset="1" style="stop-color:#A3A3A3"/>
				</radialGradient>
				
					<path i:knockout="Off" fill-rule="evenodd" clip-rule="evenodd" fill="url(#XMLID_10_)" stroke="#9C9C9C" stroke-width="0.25" d="
					M25.383,24.801c0,0.391-0.318,0.707-0.709,0.707s-0.709-0.316-0.709-0.707c0-0.393,0.318-0.709,0.709-0.709
					S25.383,24.408,25.383,24.801z"/>
				
					<radialGradient id="XMLID_11_" cx="24.4863" cy="14.1118" r="1.2138" fx="24.4863" fy="14.1118" gradientUnits="userSpaceOnUse">
					<stop  offset="0.2528" style="stop-color:#E0E0E0"/>
					<stop  offset="1" style="stop-color:#A3A3A3"/>
					<a:midPointStop  offset="0.2528" style="stop-color:#E0E0E0"/>
					<a:midPointStop  offset="0.5" style="stop-color:#E0E0E0"/>
					<a:midPointStop  offset="1" style="stop-color:#A3A3A3"/>
				</radialGradient>
				
					<path i:knockout="Off" fill-rule="evenodd" clip-rule="evenodd" fill="url(#XMLID_11_)" stroke="#9C9C9C" stroke-width="0.25" d="
					M25.383,14.487c0,0.391-0.318,0.708-0.709,0.708s-0.709-0.316-0.709-0.708c0-0.392,0.318-0.709,0.709-0.709
					S25.383,14.096,25.383,14.487z"/>
			</g>
		</g>
		<linearGradient id="XMLID_12_" gradientUnits="userSpaceOnUse" x1="22.6523" y1="26.9414" x2="22.6523" y2="28.3164">
			<stop  offset="0.0056" style="stop-color:#92FF00"/>
			<stop  offset="1" style="stop-color:#53A500"/>
			<a:midPointStop  offset="0.0056" style="stop-color:#92FF00"/>
			<a:midPointStop  offset="0.5" style="stop-color:#92FF00"/>
			<a:midPointStop  offset="1" style="stop-color:#53A500"/>
		</linearGradient>
		<path i:knockout="Off" fill-rule="evenodd" clip-rule="evenodd" fill="url(#XMLID_12_)" stroke="#FFFFFF" stroke-width="0.25" d="
			M23.658,28.221c0,0.053-0.043,0.096-0.096,0.096h-1.821c-0.053,0-0.095-0.043-0.095-0.096v-1.184c0-0.053,0.042-0.096,0.095-0.096
			h1.821c0.053,0,0.096,0.043,0.096,0.096V28.221z"/>
	</g>
</svg>
