<?xml version="1.0" encoding="utf-8"?>
<!-- Generator: Adobe Illustrator 10.0, SVG Export Plug-In . SVG Version: 3.0.0 Build 77)  -->
<!DOCTYPE svg PUBLIC "-//W3C//DTD SVG 1.0//EN"    "http://www.w3.org/TR/2001/REC-SVG-20010904/DTD/svg10.dtd" [
	<!ENTITY ns_flows "http://ns.adobe.com/Flows/1.0/">
	<!ENTITY ns_extend "http://ns.adobe.com/Extensibility/1.0/">
	<!ENTITY ns_ai "http://ns.adobe.com/AdobeIllustrator/10.0/">
	<!ENTITY ns_graphs "http://ns.adobe.com/Graphs/1.0/">
	<!ENTITY ns_vars "http://ns.adobe.com/Variables/1.0/">
	<!ENTITY ns_imrep "http://ns.adobe.com/ImageReplacement/1.0/">
	<!ENTITY ns_sfw "http://ns.adobe.com/SaveForWeb/1.0/">
	<!ENTITY ns_custom "http://ns.adobe.com/GenericCustomNamespace/1.0/">
	<!ENTITY ns_adobe_xpath "http://ns.adobe.com/XPath/1.0/">
	<!ENTITY ns_svg "http://www.w3.org/2000/svg">
	<!ENTITY ns_xlink "http://www.w3.org/1999/xlink">
]>
<svg 
	 xmlns:x="&ns_extend;" xmlns:i="&ns_ai;" xmlns:graph="&ns_graphs;" i:viewOrigin="0 32" i:rulerOrigin="0 0" i:pageBounds="0 32 32 0"
	 xmlns="&ns_svg;" xmlns:xlink="&ns_xlink;" xmlns:a="http://ns.adobe.com/AdobeSVGViewerExtensions/3.0/" width="32" height="32"
	 viewBox="0 0 32 32" overflow="visible" enable-background="new 0 0 32 32" xml:space="preserve">
	<metadata>
		<variableSets  xmlns="&ns_vars;">
			<variableSet  varSetName="binding1" locked="none">
				<variables></variables>
				<v:sampleDataSets  xmlns="&ns_custom;" xmlns:v="&ns_vars;"></v:sampleDataSets>
			</variableSet>
		</variableSets>
		<sfw  xmlns="&ns_sfw;">
			<slices></slices>
			<sliceSourceBounds  y="0" x="0" width="32" height="32" bottomLeftOrigin="true"></sliceSourceBounds>
		</sfw>
	</metadata>
	<g id="圖層_1" i:layer="yes" i:dimmedPercent="50" i:rgbTrio="#4F008000FFFF">
		<g>
			<g>
				<radialGradient id="XMLID_1_" cx="16" cy="16" r="13.9063" fx="16" fy="16" gradientUnits="userSpaceOnUse">
					<stop  offset="0.4551" style="stop-color:#FF9003"/>
					<stop  offset="0.4634" style="stop-color:#FF950E"/>
					<stop  offset="0.5302" style="stop-color:#FFBA62"/>
					<stop  offset="0.5892" style="stop-color:#FFD8A6"/>
					<stop  offset="0.6383" style="stop-color:#FFEDD6"/>
					<stop  offset="0.6756" style="stop-color:#FFFAF4"/>
					<stop  offset="0.6966" style="stop-color:#FFFFFF"/>
					<stop  offset="0.7497" style="stop-color:#FFFDFC"/>
					<stop  offset="0.7903" style="stop-color:#FEF8F2"/>
					<stop  offset="0.8267" style="stop-color:#FDEFE2"/>
					<stop  offset="0.8607" style="stop-color:#FBE3CB"/>
					<stop  offset="0.893" style="stop-color:#F9D3AD"/>
					<stop  offset="0.9241" style="stop-color:#F6C088"/>
					<stop  offset="0.9541" style="stop-color:#F3A85D"/>
					<stop  offset="0.9826" style="stop-color:#EF8E2C"/>
					<stop  offset="1" style="stop-color:#ED7C0A"/>
					<a:midPointStop  offset="0.4551" style="stop-color:#FF9003"/>
					<a:midPointStop  offset="0.4186" style="stop-color:#FF9003"/>
					<a:midPointStop  offset="0.6966" style="stop-color:#FFFFFF"/>
					<a:midPointStop  offset="0.7593" style="stop-color:#FFFFFF"/>
					<a:midPointStop  offset="1" style="stop-color:#ED7C0A"/>
				</radialGradient>
				<path i:knockout="Off" fill="url(#XMLID_1_)" d="M16,2.094C8.32,2.094,2.094,8.32,2.094,16c0,7.681,6.226,13.906,13.906,13.906
					c7.681,0,13.906-6.226,13.906-13.906C29.906,8.32,23.681,2.094,16,2.094z M16,22.953c-3.84,0-6.953-3.113-6.953-6.953
					S12.16,9.047,16,9.047S22.953,12.16,22.953,16S19.84,22.953,16,22.953z"/>
				<radialGradient id="XMLID_2_" cx="16.0015" cy="15.9941" r="11.853" fx="16.0015" fy="15.9941" gradientUnits="userSpaceOnUse">
					<stop  offset="0.573" style="stop-color:#D75809"/>
					<stop  offset="0.8315" style="stop-color:#F68D00"/>
					<stop  offset="1" style="stop-color:#C74C08"/>
					<a:midPointStop  offset="0.573" style="stop-color:#D75809"/>
					<a:midPointStop  offset="0.5" style="stop-color:#D75809"/>
					<a:midPointStop  offset="0.8315" style="stop-color:#F68D00"/>
					<a:midPointStop  offset="0.5" style="stop-color:#F68D00"/>
					<a:midPointStop  offset="1" style="stop-color:#C74C08"/>
				</radialGradient>
				<path i:knockout="Off" fill="url(#XMLID_2_)" d="M9.533,13.444c0.245-0.617,0.575-1.192,0.977-1.709
					c0.308-0.395,0.657-0.756,1.041-1.076L7.421,5.057c-1.769,1.389-3.193,3.196-4.123,5.273L9.533,13.444z M3.299,21.658
					c0.929,2.077,2.354,3.885,4.123,5.273l4.129-5.602c-0.384-0.32-0.733-0.682-1.041-1.076c-0.402-0.517-0.732-1.092-0.977-1.709
					L3.299,21.658z M22.471,18.545c-0.245,0.617-0.575,1.192-0.978,1.709c-0.307,0.395-0.656,0.756-1.04,1.076l4.129,5.602
					c1.769-1.389,3.193-3.196,4.122-5.273L22.471,18.545z M28.704,10.331c-0.929-2.077-2.354-3.885-4.122-5.273l-4.129,5.602
					c0.384,0.32,0.733,0.682,1.04,1.076c0.402,0.517,0.732,1.092,0.978,1.709L28.704,10.331z"/>
			</g>
			<path i:knockout="Off" fill="none" d="M32,32H0V0h32V32z"/>
		</g>
	</g>
</svg>
