<?xml version="1.0" encoding="utf-8"?>
<!-- Generator: Adobe Illustrator 10.0, SVG Export Plug-In . SVG Version: 3.0.0 Build 77)  -->
<!DOCTYPE svg PUBLIC "-//W3C//DTD SVG 1.0//EN"    "http://www.w3.org/TR/2001/REC-SVG-20010904/DTD/svg10.dtd" [
	<!ENTITY ns_flows "http://ns.adobe.com/Flows/1.0/">
	<!ENTITY ns_extend "http://ns.adobe.com/Extensibility/1.0/">
	<!ENTITY ns_ai "http://ns.adobe.com/AdobeIllustrator/10.0/">
	<!ENTITY ns_graphs "http://ns.adobe.com/Graphs/1.0/">
	<!ENTITY ns_vars "http://ns.adobe.com/Variables/1.0/">
	<!ENTITY ns_imrep "http://ns.adobe.com/ImageReplacement/1.0/">
	<!ENTITY ns_sfw "http://ns.adobe.com/SaveForWeb/1.0/">
	<!ENTITY ns_custom "http://ns.adobe.com/GenericCustomNamespace/1.0/">
	<!ENTITY ns_adobe_xpath "http://ns.adobe.com/XPath/1.0/">
	<!ENTITY ns_svg "http://www.w3.org/2000/svg">
	<!ENTITY ns_xlink "http://www.w3.org/1999/xlink">
]>
<svg 
	 xmlns:x="&ns_extend;" xmlns:i="&ns_ai;" xmlns:graph="&ns_graphs;" i:viewOrigin="0 32" i:rulerOrigin="0 0" i:pageBounds="0 32 32 0"
	 xmlns="&ns_svg;" xmlns:xlink="&ns_xlink;" xmlns:a="http://ns.adobe.com/AdobeSVGViewerExtensions/3.0/" width="32" height="32"
	 viewBox="0 0 32 32" overflow="visible" enable-background="new 0 0 32 32" xml:space="preserve">
	<metadata>
		<variableSets  xmlns="&ns_vars;">
			<variableSet  varSetName="binding1" locked="none">
				<variables></variables>
				<v:sampleDataSets  xmlns="&ns_custom;" xmlns:v="&ns_vars;"></v:sampleDataSets>
			</variableSet>
		</variableSets>
		<sfw  xmlns="&ns_sfw;">
			<slices></slices>
			<sliceSourceBounds  y="0" x="0" width="32" height="32" bottomLeftOrigin="true"></sliceSourceBounds>
		</sfw>
	</metadata>
	<g id="圖層_1" i:layer="yes" i:dimmedPercent="50" i:rgbTrio="#4F008000FFFF">
		<g>
			<path i:knockout="Off" fill="none" d="M32,32H0V0h32V32z"/>
			<g>
				<linearGradient id="XMLID_1_" gradientUnits="userSpaceOnUse" x1="14.8765" y1="6.3809" x2="14.8765" y2="24.3228">
					<stop  offset="0.0056" style="stop-color:#FF7800"/>
					<stop  offset="0.4264" style="stop-color:#A32C00"/>
					<stop  offset="0.4551" style="stop-color:#9D2700"/>
					<a:midPointStop  offset="0.0056" style="stop-color:#FF7800"/>
					<a:midPointStop  offset="0.5102" style="stop-color:#FF7800"/>
					<a:midPointStop  offset="0.4551" style="stop-color:#9D2700"/>
				</linearGradient>
				<path i:knockout="Off" fill-rule="evenodd" clip-rule="evenodd" fill="url(#XMLID_1_)" d="M2.49,24.322V8.795
					c0-1.333,1.081-2.414,2.415-2.414c0,0,6.767,0,8.05,0s1.735,3.622,3.221,3.622c6.296,0,8.672,0,8.672,0
					c1.334,0,2.415,1.081,2.415,2.415v11.904C26.691,24.322,4.542,24.322,2.49,24.322z"/>
				<linearGradient id="XMLID_2_" gradientUnits="userSpaceOnUse" x1="16.0137" y1="14.9902" x2="16.0137" y2="25.6206">
					<stop  offset="0.0056" style="stop-color:#FF7800"/>
					<stop  offset="1" style="stop-color:#9A2400"/>
					<a:midPointStop  offset="0.0056" style="stop-color:#FF7800"/>
					<a:midPointStop  offset="0.5" style="stop-color:#FF7800"/>
					<a:midPointStop  offset="1" style="stop-color:#9A2400"/>
				</linearGradient>
				<path i:knockout="Off" fill-rule="evenodd" clip-rule="evenodd" fill="url(#XMLID_2_)" d="M27.459,24.121
					c-0.202,0.828-1.271,1.499-2.381,1.499H4.123c-1.112,0-1.831-0.671-1.604-1.499l2.286-7.664c0.221-0.81,1.292-1.467,2.391-1.467
					H27.88c1.098,0,1.828,0.657,1.63,1.467L27.459,24.121z"/>
			</g>
		</g>
	</g>
</svg>
