<?xml version="1.0" encoding="utf-8"?>
<!-- Generator: Adobe Illustrator 10.0, SVG Export Plug-In . SVG Version: 3.0.0 Build 77)  -->
<!DOCTYPE svg PUBLIC "-//W3C//DTD SVG 1.0//EN"    "http://www.w3.org/TR/2001/REC-SVG-20010904/DTD/svg10.dtd" [
	<!ENTITY ns_flows "http://ns.adobe.com/Flows/1.0/">
	<!ENTITY ns_extend "http://ns.adobe.com/Extensibility/1.0/">
	<!ENTITY ns_ai "http://ns.adobe.com/AdobeIllustrator/10.0/">
	<!ENTITY ns_graphs "http://ns.adobe.com/Graphs/1.0/">
	<!ENTITY ns_vars "http://ns.adobe.com/Variables/1.0/">
	<!ENTITY ns_imrep "http://ns.adobe.com/ImageReplacement/1.0/">
	<!ENTITY ns_sfw "http://ns.adobe.com/SaveForWeb/1.0/">
	<!ENTITY ns_custom "http://ns.adobe.com/GenericCustomNamespace/1.0/">
	<!ENTITY ns_adobe_xpath "http://ns.adobe.com/XPath/1.0/">
	<!ENTITY ns_svg "http://www.w3.org/2000/svg">
	<!ENTITY ns_xlink "http://www.w3.org/1999/xlink">
]>
<svg 
	 xmlns:x="&ns_extend;" xmlns:i="&ns_ai;" xmlns:graph="&ns_graphs;" i:viewOrigin="0 32" i:rulerOrigin="0 0" i:pageBounds="0 32 32 0"
	 xmlns="&ns_svg;" xmlns:xlink="&ns_xlink;" xmlns:a="http://ns.adobe.com/AdobeSVGViewerExtensions/3.0/" width="32" height="32"
	 viewBox="0 0 32 32" overflow="visible" enable-background="new 0 0 32 32" xml:space="preserve">
	<metadata>
		<variableSets  xmlns="&ns_vars;">
			<variableSet  varSetName="binding1" locked="none">
				<variables></variables>
				<v:sampleDataSets  xmlns="&ns_custom;" xmlns:v="&ns_vars;"></v:sampleDataSets>
			</variableSet>
		</variableSets>
		<sfw  xmlns="&ns_sfw;">
			<slices></slices>
			<sliceSourceBounds  y="0" x="0" width="32" height="32" bottomLeftOrigin="true"></sliceSourceBounds>
		</sfw>
	</metadata>
	<g id="圖層_1" i:layer="yes" i:dimmedPercent="50" i:rgbTrio="#4F008000FFFF">
		<path i:knockout="Off" fill="none" d="M32,32H0V0h32V32z"/>
		<linearGradient id="XMLID_1_" gradientUnits="userSpaceOnUse" x1="16.0005" y1="0.9766" x2="16.0005" y2="31.0249">
			<stop  offset="0.0056" style="stop-color:#FF7800"/>
			<stop  offset="1" style="stop-color:#9A2400"/>
			<a:midPointStop  offset="0.0056" style="stop-color:#FF7800"/>
			<a:midPointStop  offset="0.5" style="stop-color:#FF7800"/>
			<a:midPointStop  offset="1" style="stop-color:#9A2400"/>
		</linearGradient>
		<path i:knockout="Off" fill="url(#XMLID_1_)" d="M29.964,25.095l-7.511-7.522c-0.02-0.021-0.043-0.033-0.063-0.053
			c0.815-1.563,1.284-3.336,1.284-5.217c0-6.246-5.082-11.326-11.328-11.326c-6.244,0-11.324,5.08-11.324,11.326
			c0,6.245,5.08,11.326,11.324,11.326c1.843,0,3.578-0.451,5.117-1.235c0.026,0.028,0.044,0.062,0.072,0.089l7.51,7.522
			c1.355,1.358,3.557,1.36,4.914,0.004C31.317,28.653,31.319,26.452,29.964,25.095z M12.344,20.463c-4.499,0-8.16-3.66-8.16-8.16
			s3.661-8.16,8.16-8.16c4.5,0,8.161,3.66,8.161,8.16S16.844,20.463,12.344,20.463z"/>
		<g i:knockout="Off">
			<linearGradient id="XMLID_2_" gradientUnits="userSpaceOnUse" x1="6.9155" y1="8.3389" x2="6.9155" y2="16.0596">
				<stop  offset="0.0056" style="stop-color:#FF7800"/>
				<stop  offset="1" style="stop-color:#9A2400"/>
				<a:midPointStop  offset="0.0056" style="stop-color:#FF7800"/>
				<a:midPointStop  offset="0.5" style="stop-color:#FF7800"/>
				<a:midPointStop  offset="1" style="stop-color:#9A2400"/>
			</linearGradient>
			<path i:knockout="Off" fill="url(#XMLID_2_)" d="M8.599,16.06H7.128V10.5c-0.536,0.504-1.169,0.877-1.896,1.118V10.28
				c0.383-0.125,0.799-0.365,1.25-0.714c0.45-0.35,0.759-0.76,0.926-1.227h1.192V16.06z"/>
			<linearGradient id="XMLID_3_" gradientUnits="userSpaceOnUse" x1="12.1362" y1="10.5005" x2="12.1362" y2="16.0596">
				<stop  offset="0.0056" style="stop-color:#FF7800"/>
				<stop  offset="1" style="stop-color:#9A2400"/>
				<a:midPointStop  offset="0.0056" style="stop-color:#FF7800"/>
				<a:midPointStop  offset="0.5" style="stop-color:#FF7800"/>
				<a:midPointStop  offset="1" style="stop-color:#9A2400"/>
			</linearGradient>
			<path i:knockout="Off" fill="url(#XMLID_3_)" d="M11.401,11.972V10.5h1.47v1.471H11.401z M11.401,16.06v-1.471h1.47v1.471H11.401
				z"/>
			<linearGradient id="XMLID_4_" gradientUnits="userSpaceOnUse" x1="16.4507" y1="8.3389" x2="16.4507" y2="16.0596">
				<stop  offset="0.0056" style="stop-color:#FF7800"/>
				<stop  offset="1" style="stop-color:#9A2400"/>
				<a:midPointStop  offset="0.0056" style="stop-color:#FF7800"/>
				<a:midPointStop  offset="0.5" style="stop-color:#FF7800"/>
				<a:midPointStop  offset="1" style="stop-color:#9A2400"/>
			</linearGradient>
			<path i:knockout="Off" fill="url(#XMLID_4_)" d="M18.135,16.06h-1.47V10.5c-0.537,0.504-1.169,0.877-1.897,1.118V10.28
				c0.383-0.125,0.8-0.365,1.25-0.714c0.45-0.35,0.759-0.76,0.927-1.227h1.191V16.06z"/>
		</g>
	</g>
</svg>
