<?xml version="1.0" encoding="utf-8"?>
<!-- Generator: Adobe Illustrator 10.0, SVG Export Plug-In . SVG Version: 3.0.0 Build 77)  -->
<!DOCTYPE svg PUBLIC "-//W3C//DTD SVG 1.0//EN"    "http://www.w3.org/TR/2001/REC-SVG-20010904/DTD/svg10.dtd" [
	<!ENTITY ns_flows "http://ns.adobe.com/Flows/1.0/">
	<!ENTITY ns_extend "http://ns.adobe.com/Extensibility/1.0/">
	<!ENTITY ns_ai "http://ns.adobe.com/AdobeIllustrator/10.0/">
	<!ENTITY ns_graphs "http://ns.adobe.com/Graphs/1.0/">
	<!ENTITY ns_vars "http://ns.adobe.com/Variables/1.0/">
	<!ENTITY ns_imrep "http://ns.adobe.com/ImageReplacement/1.0/">
	<!ENTITY ns_sfw "http://ns.adobe.com/SaveForWeb/1.0/">
	<!ENTITY ns_custom "http://ns.adobe.com/GenericCustomNamespace/1.0/">
	<!ENTITY ns_adobe_xpath "http://ns.adobe.com/XPath/1.0/">
	<!ENTITY ns_svg "http://www.w3.org/2000/svg">
	<!ENTITY ns_xlink "http://www.w3.org/1999/xlink">
]>
<svg 
	 xmlns:x="&ns_extend;" xmlns:i="&ns_ai;" xmlns:graph="&ns_graphs;" i:viewOrigin="0 32" i:rulerOrigin="0 0" i:pageBounds="0 32 32 0"
	 xmlns="&ns_svg;" xmlns:xlink="&ns_xlink;" xmlns:a="http://ns.adobe.com/AdobeSVGViewerExtensions/3.0/" width="32" height="32"
	 viewBox="0 0 32 32" overflow="visible" enable-background="new 0 0 32 32" xml:space="preserve">
	<metadata>
		<variableSets  xmlns="&ns_vars;">
			<variableSet  varSetName="binding1" locked="none">
				<variables></variables>
				<v:sampleDataSets  xmlns="&ns_custom;" xmlns:v="&ns_vars;"></v:sampleDataSets>
			</variableSet>
		</variableSets>
		<sfw  xmlns="&ns_sfw;">
			<slices></slices>
			<sliceSourceBounds  y="0" x="0" width="32" height="32" bottomLeftOrigin="true"></sliceSourceBounds>
		</sfw>
	</metadata>
	<g id="圖層_1" i:layer="yes" i:dimmedPercent="50" i:rgbTrio="#4F008000FFFF">
		<g>
			<linearGradient id="XMLID_1_" gradientUnits="userSpaceOnUse" x1="15.9995" y1="7.417" x2="15.9995" y2="29.9173">
				<stop  offset="0.0056" style="stop-color:#FF7800"/>
				<stop  offset="1" style="stop-color:#9A2400"/>
				<a:midPointStop  offset="0.0056" style="stop-color:#FF7800"/>
				<a:midPointStop  offset="0.5" style="stop-color:#FF7800"/>
				<a:midPointStop  offset="1" style="stop-color:#9A2400"/>
			</linearGradient>
			<path i:knockout="Off" fill="url(#XMLID_1_)" d="M16,1.125c-8.215,0-14.875,6.66-14.875,14.877
				c0,8.213,6.66,14.873,14.875,14.873s14.875-6.66,14.875-14.873C30.875,7.785,24.215,1.125,16,1.125z M16,19.719
				c-2.054,0-3.719-1.665-3.719-3.719s1.665-3.719,3.719-3.719s3.719,1.665,3.719,3.719S18.054,19.719,16,19.719z"/>
			<path i:knockout="Off" opacity="0.4" fill="#FFFFFF" d="M16,9.193c-3.76,0-6.807,3.047-6.807,6.807
				c0,3.759,3.047,6.807,6.807,6.807c3.759,0,6.807-3.048,6.807-6.807C22.807,12.24,19.759,9.193,16,9.193z M16,19.719
				c-2.054,0-3.719-1.665-3.719-3.719s1.665-3.719,3.719-3.719s3.719,1.665,3.719,3.719S18.054,19.719,16,19.719z"/>
		</g>
		<path i:knockout="Off" fill="none" d="M32,32H0V0h32V32z"/>
	</g>
</svg>
