<?xml version="1.0" encoding="utf-8"?>
<!-- Generator: Adobe Illustrator 10.0, SVG Export Plug-In . SVG Version: 3.0.0 Build 77)  -->
<!DOCTYPE svg PUBLIC "-//W3C//DTD SVG 1.0//EN"    "http://www.w3.org/TR/2001/REC-SVG-20010904/DTD/svg10.dtd" [
	<!ENTITY ns_flows "http://ns.adobe.com/Flows/1.0/">
	<!ENTITY ns_extend "http://ns.adobe.com/Extensibility/1.0/">
	<!ENTITY ns_ai "http://ns.adobe.com/AdobeIllustrator/10.0/">
	<!ENTITY ns_graphs "http://ns.adobe.com/Graphs/1.0/">
	<!ENTITY ns_vars "http://ns.adobe.com/Variables/1.0/">
	<!ENTITY ns_imrep "http://ns.adobe.com/ImageReplacement/1.0/">
	<!ENTITY ns_sfw "http://ns.adobe.com/SaveForWeb/1.0/">
	<!ENTITY ns_custom "http://ns.adobe.com/GenericCustomNamespace/1.0/">
	<!ENTITY ns_adobe_xpath "http://ns.adobe.com/XPath/1.0/">
	<!ENTITY ns_svg "http://www.w3.org/2000/svg">
	<!ENTITY ns_xlink "http://www.w3.org/1999/xlink">
]>
<svg 
	 xmlns:x="&ns_extend;" xmlns:i="&ns_ai;" xmlns:graph="&ns_graphs;" i:viewOrigin="0.0073 32" i:rulerOrigin="0 0" i:pageBounds="0 32 32 0"
	 xmlns="&ns_svg;" xmlns:xlink="&ns_xlink;" xmlns:a="http://ns.adobe.com/AdobeSVGViewerExtensions/3.0/" width="32" height="32"
	 viewBox="0 0 32 32" overflow="visible" enable-background="new 0 0 32 32" xml:space="preserve">
	<metadata>
		<variableSets  xmlns="&ns_vars;">
			<variableSet  varSetName="binding1" locked="none">
				<variables></variables>
				<v:sampleDataSets  xmlns="&ns_custom;" xmlns:v="&ns_vars;"></v:sampleDataSets>
			</variableSet>
		</variableSets>
		<sfw  xmlns="&ns_sfw;">
			<slices></slices>
			<sliceSourceBounds  y="0" x="0.007" width="32" height="32" bottomLeftOrigin="true"></sliceSourceBounds>
		</sfw>
	</metadata>
	<g id="_x00B9_柉x00BC_h_x005F_1" i:layer="yes" i:dimmedPercent="50" i:rgbTrio="#4F008000FFFF">
		<path i:knockout="Off" fill-rule="evenodd" clip-rule="evenodd" fill="#FFFFFF" d="M25.467,26.219H6.533V5.782h18.934V26.219z"/>
		<g i:knockout="Off">
			<g>
				<linearGradient id="XMLID_1_" gradientUnits="userSpaceOnUse" x1="16" y1="1.6665" x2="16" y2="30.3345">
					<stop  offset="0.0056" style="stop-color:#FF7800"/>
					<stop  offset="1" style="stop-color:#9A2400"/>
					<a:midPointStop  offset="0.0056" style="stop-color:#FF7800"/>
					<a:midPointStop  offset="0.5" style="stop-color:#FF7800"/>
					<a:midPointStop  offset="1" style="stop-color:#9A2400"/>
				</linearGradient>
				<path i:knockout="Off" fill-rule="evenodd" clip-rule="evenodd" fill="url(#XMLID_1_)" d="M25.685,1.667H6.315
					c-1.769,0-3.203,1.433-3.203,3.202v22.262c0,1.768,1.434,3.203,3.203,3.203h19.37c1.77,0,3.203-1.436,3.203-3.203V4.869
					C28.888,3.099,27.455,1.667,25.685,1.667z"/>
			</g>
		</g>
		<path i:knockout="Off" fill="none" d="M32,32H0V0h32V32z"/>
		<g>
			<path i:knockout="Off" fill-rule="evenodd" clip-rule="evenodd" fill="#FFFFFF" d="M4.539,9.884V6.868h15.068v3.016H4.539z"/>
			<path i:knockout="Off" fill-rule="evenodd" clip-rule="evenodd" fill="#FFFFFF" d="M4.539,14.843v-3.018h15.068v3.018H4.539z"/>
			<path i:knockout="Off" fill-rule="evenodd" clip-rule="evenodd" fill="#FFFFFF" d="M10.002,24.758V21.74h9.604v3.018H10.002z"/>
			<g i:knockout="Off">
				<g>
					<path i:knockout="Off" fill="#FFFFFF" d="M23.58,14.558v-1.374l-3.521,2.655l3.521,2.655v-1.375h3.882v-2.562H23.58z"/>
				</g>
			</g>
			<path i:knockout="Off" fill-rule="evenodd" clip-rule="evenodd" fill="#FFFFFF" d="M4.539,19.8v-3.017h15.068V19.8H4.539z"/>
			<path i:knockout="Off" fill="#FFFFFF" d="M18.448,4.938h1.25v1.25h-1.25V4.938z"/>
			<path i:knockout="Off" fill="#FFFFFF" d="M18.448,25.449h1.25v1.25h-1.25V25.449z"/>
		</g>
	</g>
</svg>
