<?xml version="1.0" encoding="utf-8"?>
<!-- Generator: Adobe Illustrator 10.0, SVG Export Plug-In . SVG Version: 3.0.0 Build 77)  -->
<!DOCTYPE svg PUBLIC "-//W3C//DTD SVG 1.0//EN"    "http://www.w3.org/TR/2001/REC-SVG-20010904/DTD/svg10.dtd" [
	<!ENTITY ns_flows "http://ns.adobe.com/Flows/1.0/">
	<!ENTITY ns_extend "http://ns.adobe.com/Extensibility/1.0/">
	<!ENTITY ns_ai "http://ns.adobe.com/AdobeIllustrator/10.0/">
	<!ENTITY ns_graphs "http://ns.adobe.com/Graphs/1.0/">
	<!ENTITY ns_vars "http://ns.adobe.com/Variables/1.0/">
	<!ENTITY ns_imrep "http://ns.adobe.com/ImageReplacement/1.0/">
	<!ENTITY ns_sfw "http://ns.adobe.com/SaveForWeb/1.0/">
	<!ENTITY ns_custom "http://ns.adobe.com/GenericCustomNamespace/1.0/">
	<!ENTITY ns_adobe_xpath "http://ns.adobe.com/XPath/1.0/">
	<!ENTITY ns_svg "http://www.w3.org/2000/svg">
	<!ENTITY ns_xlink "http://www.w3.org/1999/xlink">
]>
<svg 
	 xmlns:x="&ns_extend;" xmlns:i="&ns_ai;" xmlns:graph="&ns_graphs;" i:viewOrigin="0 32" i:rulerOrigin="0 0" i:pageBounds="0 32 32 0"
	 xmlns="&ns_svg;" xmlns:xlink="&ns_xlink;" xmlns:a="http://ns.adobe.com/AdobeSVGViewerExtensions/3.0/" width="32" height="32"
	 viewBox="0 0 32 32" overflow="visible" enable-background="new 0 0 32 32" xml:space="preserve">
	<metadata>
		<variableSets  xmlns="&ns_vars;">
			<variableSet  varSetName="binding1" locked="none">
				<variables></variables>
				<v:sampleDataSets  xmlns="&ns_custom;" xmlns:v="&ns_vars;"></v:sampleDataSets>
			</variableSet>
		</variableSets>
		<sfw  xmlns="&ns_sfw;">
			<slices></slices>
			<sliceSourceBounds  y="0" x="0" width="32" height="32" bottomLeftOrigin="true"></sliceSourceBounds>
		</sfw>
	</metadata>
	<g id="_x00B9_柉x00BC_h_x005F_1" i:layer="yes" i:dimmedPercent="50" i:rgbTrio="#4F008000FFFF">
		<linearGradient id="XMLID_1_" gradientUnits="userSpaceOnUse" x1="15.9995" y1="1.1108" x2="15.9995" y2="31.2407">
			<stop  offset="0.0056" style="stop-color:#FF7800"/>
			<stop  offset="1" style="stop-color:#9A2400"/>
			<a:midPointStop  offset="0.0056" style="stop-color:#FF7800"/>
			<a:midPointStop  offset="0.5" style="stop-color:#FF7800"/>
			<a:midPointStop  offset="1" style="stop-color:#9A2400"/>
		</linearGradient>
		<path i:knockout="Off" fill-rule="evenodd" clip-rule="evenodd" fill="url(#XMLID_1_)" d="M30.457,29.275
			c0-0.426-0.344-0.771-0.768-0.771h-0.572l-0.569-1.152h-1.806v-0.528h1.18c0.452,0,0.816-0.324,0.816-0.723v-8.019
			c0-0.4-0.364-0.723-0.816-0.723H17.258c-0.453,0-0.818,0.322-0.818,0.723v1.177l-7.095,0.015l0.004-4.28h7.705
			c0.426,0,0.768-0.345,0.768-0.77l-0.541-1.196c0-0.425-0.345-0.768-0.769-0.768h-0.572l-0.568-1.159h-1.806v-0.527h1.18
			c0.452,0,0.816-0.321,0.816-0.722v-8.02c0-0.397-0.364-0.722-0.816-0.722H4.078c-0.451,0-0.818,0.325-0.818,0.722v8.02
			c0,0.401,0.367,0.722,0.818,0.722h1.18v0.527H3.451L2.882,12.26H2.311c-0.424,0-0.77,0.343-0.77,0.768L1,14.224
			c0,0.425,0.345,0.77,0.77,0.77h6.692l0.014,5.148h7.964v5.959c0,0.398,0.365,0.723,0.818,0.723h1.178v0.528h-1.805l-0.569,1.152
			H15.49c-0.425,0-0.769,0.346-0.769,0.771l-0.542,1.193c0,0.426,0.345,0.771,0.768,0.771H30.23c0.426,0,0.77-0.346,0.77-0.771
			L30.457,29.275z"/>
		<path i:knockout="Off" fill="none" d="M32,32H0V0h32V32z"/>
		<path i:knockout="Off" fill="#FFFFFF" d="M13.68,2.201H5.14c-0.446,0-0.808,0.359-0.808,0.808V8.68
			c0,0.445,0.362,0.807,0.808,0.807h8.541c0.447,0,0.808-0.362,0.808-0.807V3.009C14.488,2.561,14.127,2.201,13.68,2.201z"/>
		<path i:knockout="Off" fill="#FFFFFF" d="M4.366,13.371H3.57c-0.19,0-0.346,0.108-0.346,0.244c0,0.133,0.155,0.241,0.346,0.241
			h0.796c0.19,0,0.347-0.108,0.347-0.241C4.712,13.479,4.556,13.371,4.366,13.371z"/>
		<path i:knockout="Off" fill="#FFFFFF" d="M6.541,13.371H5.748c-0.191,0-0.348,0.108-0.348,0.244c0,0.133,0.157,0.241,0.348,0.241
			h0.793c0.192,0,0.349-0.108,0.349-0.241C6.89,13.479,6.733,13.371,6.541,13.371z"/>
		<path i:knockout="Off" fill="#FFFFFF" d="M8.72,13.371H7.924c-0.191,0-0.347,0.108-0.347,0.244c0,0.133,0.156,0.241,0.347,0.241
			H8.72c0.19,0,0.347-0.108,0.347-0.241C9.067,13.479,8.911,13.371,8.72,13.371z"/>
		<path i:knockout="Off" fill="#FFFFFF" d="M10.895,13.371h-0.793c-0.192,0-0.348,0.108-0.348,0.244
			c0,0.133,0.156,0.241,0.348,0.241h0.793c0.193,0,0.35-0.108,0.35-0.241C11.245,13.479,11.088,13.371,10.895,13.371z"/>
		<path i:knockout="Off" fill="#FFFFFF" d="M13.073,13.371h-0.794c-0.19,0-0.348,0.108-0.348,0.244c0,0.133,0.158,0.241,0.348,0.241
			h0.794c0.192,0,0.347-0.108,0.347-0.241C13.419,13.479,13.265,13.371,13.073,13.371z"/>
		<path i:knockout="Off" fill="#FFFFFF" d="M15.25,13.371h-0.795c-0.191,0-0.346,0.108-0.346,0.244c0,0.133,0.154,0.241,0.346,0.241
			h0.795c0.191,0,0.347-0.108,0.347-0.241C15.597,13.479,15.442,13.371,15.25,13.371z"/>
		<path i:knockout="Off" fill="#FFFFFF" d="M4.656,13.088H5.45c0.192,0,0.347-0.108,0.347-0.242c0-0.133-0.154-0.243-0.347-0.243
			H4.656c-0.192,0-0.347,0.11-0.347,0.243C4.309,12.979,4.464,13.088,4.656,13.088z"/>
		<path i:knockout="Off" fill="#FFFFFF" d="M6.832,13.088h0.795c0.191,0,0.348-0.108,0.348-0.242c0-0.133-0.157-0.243-0.348-0.243
			H6.832c-0.19,0-0.346,0.11-0.346,0.243C6.486,12.979,6.641,13.088,6.832,13.088z"/>
		<path i:knockout="Off" fill="#FFFFFF" d="M9.009,13.088h0.794c0.192,0,0.349-0.108,0.349-0.242c0-0.133-0.156-0.243-0.349-0.243
			H9.009c-0.191,0-0.347,0.11-0.347,0.243C8.662,12.979,8.818,13.088,9.009,13.088z"/>
		<path i:knockout="Off" fill="#FFFFFF" d="M11.187,13.088h0.794c0.191,0,0.347-0.108,0.347-0.242c0-0.133-0.156-0.243-0.347-0.243
			h-0.794c-0.192,0-0.346,0.11-0.346,0.243C10.84,12.979,10.995,13.088,11.187,13.088z"/>
		<path i:knockout="Off" fill="#FFFFFF" d="M13.362,13.088h0.795c0.193,0,0.349-0.108,0.349-0.242c0-0.133-0.155-0.243-0.349-0.243
			h-0.795c-0.191,0-0.347,0.11-0.347,0.243C13.015,12.979,13.17,13.088,13.362,13.088z"/>
		<path i:knockout="Off" fill="#FFFFFF" d="M26.86,18.45h-8.542c-0.446,0-0.807,0.359-0.807,0.804v5.672
			c0,0.447,0.36,0.807,0.807,0.807h8.542c0.445,0,0.808-0.359,0.808-0.807v-5.672C27.668,18.81,27.306,18.45,26.86,18.45z"/>
		<g>
			<path i:knockout="Off" fill="#FFFFFF" d="M17.545,29.631h-0.796c-0.19,0-0.347,0.109-0.347,0.241
				c0,0.136,0.156,0.245,0.347,0.245h0.796c0.191,0,0.347-0.109,0.347-0.245C17.892,29.74,17.736,29.631,17.545,29.631z"/>
			<path i:knockout="Off" fill="#FFFFFF" d="M19.721,29.631h-0.794c-0.192,0-0.347,0.109-0.347,0.241
				c0,0.136,0.154,0.245,0.347,0.245h0.794c0.191,0,0.347-0.109,0.347-0.245C20.067,29.74,19.912,29.631,19.721,29.631z"/>
			<path i:knockout="Off" fill="#FFFFFF" d="M21.898,29.631h-0.795c-0.191,0-0.348,0.109-0.348,0.241
				c0,0.136,0.156,0.245,0.348,0.245h0.795c0.19,0,0.348-0.109,0.348-0.245C22.246,29.74,22.089,29.631,21.898,29.631z"/>
			<path i:knockout="Off" fill="#FFFFFF" d="M24.075,29.631h-0.794c-0.191,0-0.349,0.109-0.349,0.241
				c0,0.136,0.157,0.245,0.349,0.245h0.794c0.191,0,0.349-0.109,0.349-0.245C24.424,29.74,24.267,29.631,24.075,29.631z"/>
			<path i:knockout="Off" fill="#FFFFFF" d="M26.252,29.631h-0.794c-0.191,0-0.348,0.109-0.348,0.241
				c0,0.136,0.156,0.245,0.348,0.245h0.794c0.191,0,0.348-0.109,0.348-0.245C26.6,29.74,26.443,29.631,26.252,29.631z"/>
			<path i:knockout="Off" fill="#FFFFFF" d="M28.43,29.631h-0.795c-0.191,0-0.346,0.109-0.346,0.241
				c0,0.136,0.154,0.245,0.346,0.245h0.795c0.19,0,0.346-0.109,0.346-0.245C28.775,29.74,28.62,29.631,28.43,29.631z"/>
			<path i:knockout="Off" fill="#FFFFFF" d="M17.835,29.349h0.794c0.192,0,0.348-0.11,0.348-0.246c0-0.131-0.155-0.241-0.348-0.241
				h-0.794c-0.192,0-0.347,0.11-0.347,0.241C17.488,29.238,17.643,29.349,17.835,29.349z"/>
			<path i:knockout="Off" fill="#FFFFFF" d="M20.012,29.349h0.796c0.19,0,0.347-0.11,0.347-0.246c0-0.131-0.156-0.241-0.347-0.241
				h-0.796c-0.189,0-0.348,0.11-0.348,0.241C19.664,29.238,19.822,29.349,20.012,29.349z"/>
			<path i:knockout="Off" fill="#FFFFFF" d="M22.189,29.349h0.793c0.193,0,0.348-0.11,0.348-0.246c0-0.131-0.154-0.241-0.348-0.241
				h-0.793c-0.192,0-0.348,0.11-0.348,0.241C21.842,29.238,21.997,29.349,22.189,29.349z"/>
			<path i:knockout="Off" fill="#FFFFFF" d="M24.365,29.349h0.794c0.191,0,0.348-0.11,0.348-0.246c0-0.131-0.156-0.241-0.348-0.241
				h-0.794c-0.191,0-0.346,0.11-0.346,0.241C24.02,29.238,24.174,29.349,24.365,29.349z"/>
			<path i:knockout="Off" fill="#FFFFFF" d="M26.543,29.349h0.794c0.191,0,0.348-0.11,0.348-0.246c0-0.131-0.156-0.241-0.348-0.241
				h-0.794c-0.192,0-0.349,0.11-0.349,0.241C26.194,29.238,26.351,29.349,26.543,29.349z"/>
		</g>
	</g>
</svg>
