/* XPM */
static char * closebutton_xpm[] = {
"32 40 4 1",
" 	c None",
".	c #FDFDFD",
"+	c #FFFFFF",
"@	c #FEFEFE",
"                                ",
"                                ",
"                                ",
"                                ",
"                                ",
"                                ",
"                                ",
"                                ",
"                                ",
"                                ",
"         ...         ...        ",
"        .....       .....       ",
"       +@.....     .......      ",
"      ++@......   .........     ",
"      ++@....... ..........     ",
"      ++@..................     ",
"       +@.................      ",
"        .................       ",
"         ...............        ",
"          .............         ",
"           ...........          ",
"          .............         ",
"         ...............        ",
"        .................       ",
"       ...................      ",
"      .....................     ",
"      .......... ..........     ",
"      .........   .........     ",
"       .......     .......      ",
"        .....       .....       ",
"         ...         ...        ",
"                                ",
"                                ",
"                                ",
"                                ",
"                                ",
"                                ",
"                                ",
"                                ",
"                                "};
